<mxfile host="65bd71144e">
    <diagram id="JSu1FzPqYgtDa369bgiW" name="Страница — 1">
        <mxGraphModel dx="1157" dy="1305" grid="1" gridSize="19.685" guides="1" tooltips="1" connect="1" arrows="1" fold="1" page="1" pageScale="1" pageWidth="3300" pageHeight="2339" math="0" shadow="0">
            <root>
                <mxCell id="0"/>
                <mxCell id="1" parent="0"/>
                <mxCell id="5" value="" style="edgeStyle=orthogonalEdgeStyle;html=1;dashed=1;endArrow=open;endFill=0;exitX=0.5;exitY=1;exitDx=0;exitDy=0;entryX=0.5;entryY=0;entryDx=0;entryDy=0;fontSize=14;fontFamily=Times New Roman;rounded=0;" parent="1" source="39" target="43" edge="1">
                    <mxGeometry relative="1" as="geometry">
                        <mxPoint x="800.34" y="438.96" as="sourcePoint"/>
                        <mxPoint x="1115.0066666666671" y="596.1800000000003" as="targetPoint"/>
                    </mxGeometry>
                </mxCell>
                <mxCell id="6" value="&lt;font&gt;#&lt;i&gt;include&lt;/i&gt;&lt;/font&gt;" style="text;html=1;align=center;verticalAlign=middle;whiteSpace=wrap;rounded=0;fontSize=14;fontFamily=Times New Roman;" parent="1" vertex="1">
                    <mxGeometry x="1114.99" y="320.96" width="78.74" height="39.01" as="geometry"/>
                </mxCell>
                <mxCell id="15" value="&lt;font&gt;#&lt;i&gt;include&lt;/i&gt;&lt;/font&gt;" style="text;html=1;align=center;verticalAlign=middle;whiteSpace=wrap;rounded=0;fontSize=14;fontFamily=Times New Roman;" parent="1" vertex="1">
                    <mxGeometry x="1114.99" y="537.12" width="78.74" height="39.01" as="geometry"/>
                </mxCell>
                <mxCell id="39" value="&lt;i&gt;main.c&lt;/i&gt;" style="swimlane;fontStyle=0;childLayout=stackLayout;horizontal=1;startSize=30;horizontalStack=0;resizeParent=1;resizeParentMax=0;resizeLast=0;collapsible=1;marginBottom=0;whiteSpace=wrap;html=1;fontSize=14;fontFamily=Times New Roman;rounded=0;" parent="1" vertex="1">
                    <mxGeometry x="937.82" y="45" width="354.33" height="275.59000000000003" as="geometry">
                        <mxRectangle x="-314.96" y="-314.96" width="98.425" height="39.37" as="alternateBounds"/>
                    </mxGeometry>
                </mxCell>
                <mxCell id="40" value="&lt;div style=&quot;text-align: justify;&quot;&gt;&lt;font&gt;&lt;font style=&quot;background-color: transparent;&quot;&gt;Г&lt;/font&gt;&lt;font style=&quot;background-color: transparent;&quot;&gt;лавный исполняемый файл&lt;/font&gt;&lt;/font&gt;&lt;/div&gt;&lt;font style=&quot;text-align: center;&quot;&gt;&lt;div style=&quot;text-align: justify;&quot;&gt;&lt;span style=&quot;background-color: transparent;&quot;&gt;Точка входа программы&lt;/span&gt;&lt;/div&gt;&lt;/font&gt;" style="text;strokeColor=none;fillColor=none;align=left;verticalAlign=middle;spacingLeft=4;spacingRight=4;overflow=hidden;points=[[0,0.5],[1,0.5]];portConstraint=eastwest;rotatable=0;whiteSpace=wrap;html=1;fontSize=14;fontFamily=Times New Roman;rounded=0;" parent="39" vertex="1">
                    <mxGeometry y="30" width="354.33" height="48.74" as="geometry"/>
                </mxCell>
                <mxCell id="41" value="&lt;div style=&quot;text-align: justify;&quot;&gt;&lt;span style=&quot;background-color: transparent;&quot;&gt;// Реализация методов&lt;br&gt;&lt;i&gt;void SystemClock_Config(void)&lt;/i&gt;&lt;/span&gt;&lt;/div&gt;&lt;div style=&quot;text-align: justify;&quot;&gt;&lt;span style=&quot;background-color: transparent;&quot;&gt;&lt;i&gt;void Mx_GPIO_Init(void)&lt;/i&gt;&lt;/span&gt;&lt;/div&gt;&lt;div style=&quot;text-align: justify;&quot;&gt;&lt;i&gt;&lt;span style=&quot;color: rgb(63, 63, 63);&quot;&gt;void Mx_TIM2_Init(void)&lt;/span&gt;&lt;span style=&quot;background-color: transparent;&quot;&gt;&lt;/span&gt;&lt;/i&gt;&lt;/div&gt;&lt;div style=&quot;text-align: justify;&quot;&gt;&lt;i&gt;&lt;span style=&quot;color: rgb(63, 63, 63);&quot;&gt;void Mx_TIM3_Init(void)&lt;/span&gt;&lt;span style=&quot;color: rgb(63, 63, 63);&quot;&gt;&lt;/span&gt;&lt;/i&gt;&lt;/div&gt;&lt;div style=&quot;text-align: justify;&quot;&gt;&lt;i&gt;&lt;span style=&quot;color: rgb(63, 63, 63);&quot;&gt;void Mx_TIM4_Init(void)&lt;/span&gt;&lt;span style=&quot;color: rgb(63, 63, 63);&quot;&gt;&lt;/span&gt;&lt;/i&gt;&lt;/div&gt;&lt;div style=&quot;text-align: justify;&quot;&gt;&lt;i&gt;&lt;span style=&quot;color: rgb(63, 63, 63);&quot;&gt;void Mx_TIM5_Init(void)&lt;/span&gt;&lt;span style=&quot;color: rgb(63, 63, 63);&quot;&gt;&lt;/span&gt;&lt;/i&gt;&lt;/div&gt;&lt;div style=&quot;text-align: justify;&quot;&gt;&lt;i&gt;&lt;span style=&quot;color: rgb(63, 63, 63);&quot;&gt;void Mx_TIM8_Init(void)&lt;/span&gt;&lt;span style=&quot;color: rgb(63, 63, 63);&quot;&gt;&lt;/span&gt;&lt;/i&gt;&lt;/div&gt;&lt;div style=&quot;text-align: justify;&quot;&gt;&lt;span style=&quot;color: rgb(63, 63, 63);&quot;&gt;&lt;i&gt;void Mx_USART2_UART_Init(void)&lt;/i&gt;&lt;/span&gt;&lt;/div&gt;&lt;div style=&quot;text-align: justify;&quot;&gt;&lt;span style=&quot;color: rgb(63, 63, 63);&quot;&gt;&lt;i&gt;&lt;div&gt;void HAL_TIM_MspPostInit (TIM_HandleTypeDef *htim)&lt;/div&gt;&lt;div&gt;void Error_Handler(void)&lt;/div&gt;&lt;/i&gt;&lt;/span&gt;&lt;/div&gt;" style="text;strokeColor=none;fillColor=none;align=left;verticalAlign=middle;spacingLeft=4;spacingRight=4;overflow=hidden;points=[[0,0.5],[1,0.5]];portConstraint=eastwest;rotatable=0;whiteSpace=wrap;html=1;fontSize=14;fontFamily=Times New Roman;rounded=0;" parent="39" vertex="1">
                    <mxGeometry y="78.74000000000001" width="354.33" height="196.85" as="geometry"/>
                </mxCell>
                <mxCell id="49" style="edgeStyle=orthogonalEdgeStyle;html=1;entryX=0.5;entryY=0;entryDx=0;entryDy=0;dashed=1;endArrow=open;endFill=0;exitX=0.5;exitY=1;exitDx=0;exitDy=0;fontSize=14;fontFamily=Times New Roman;rounded=0;" parent="1" source="43" target="46" edge="1">
                    <mxGeometry relative="1" as="geometry">
                        <mxPoint x="1292.3400000000001" y="516.96" as="sourcePoint"/>
                        <Array as="points">
                            <mxPoint x="1115.3400000000001" y="576.96"/>
                            <mxPoint x="1469.3400000000001" y="576.96"/>
                        </Array>
                    </mxGeometry>
                </mxCell>
                <mxCell id="57" style="edgeStyle=orthogonalEdgeStyle;html=1;entryX=0.5;entryY=0;entryDx=0;entryDy=0;dashed=1;endArrow=open;endFill=0;fontSize=14;fontFamily=Times New Roman;rounded=0;" parent="1" source="43" target="53" edge="1">
                    <mxGeometry relative="1" as="geometry"/>
                </mxCell>
                <mxCell id="43" value="&lt;i&gt;main.h&lt;/i&gt;" style="swimlane;fontStyle=0;childLayout=stackLayout;horizontal=1;startSize=30;horizontalStack=0;resizeParent=1;resizeParentMax=0;resizeLast=0;collapsible=1;marginBottom=0;whiteSpace=wrap;html=1;fontSize=14;fontFamily=Times New Roman;rounded=0;" parent="1" vertex="1">
                    <mxGeometry x="937.82" y="399.33" width="354.33" height="137.79000000000002" as="geometry">
                        <mxRectangle x="157.48" y="78.74000000000001" width="98.425" height="39.37" as="alternateBounds"/>
                    </mxGeometry>
                </mxCell>
                <mxCell id="44" value="&lt;div style=&quot;text-align: justify;&quot;&gt;&lt;div style=&quot;text-align: left;&quot;&gt;&lt;font&gt;&lt;span style=&quot;background-color: transparent;&quot;&gt;Заголовочный файл&lt;/span&gt;&lt;/font&gt;&lt;/div&gt;&lt;font style=&quot;text-align: center; background-color: transparent;&quot;&gt;&lt;div style=&quot;text-align: left;&quot;&gt;&lt;font style=&quot;background-color: transparent;&quot;&gt;Импорт модулей управления&lt;/font&gt;&lt;/div&gt;&lt;/font&gt;&lt;/div&gt;" style="text;strokeColor=none;fillColor=none;align=left;verticalAlign=middle;spacingLeft=4;spacingRight=4;overflow=hidden;points=[[0,0.5],[1,0.5]];portConstraint=eastwest;rotatable=0;whiteSpace=wrap;html=1;fontSize=14;fontFamily=Times New Roman;rounded=0;" parent="43" vertex="1">
                    <mxGeometry y="30" width="354.33" height="48.74" as="geometry"/>
                </mxCell>
                <mxCell id="45" value="&lt;div style=&quot;text-align: justify;&quot;&gt;&lt;span style=&quot;text-align: center; background-color: transparent;&quot;&gt;&lt;div style=&quot;text-align: left;&quot;&gt;&lt;span style=&quot;background-color: transparent;&quot;&gt;// Прототипы методов&lt;/span&gt;&lt;/div&gt;&lt;/span&gt;&lt;span style=&quot;text-align: center; background-color: transparent; font-style: italic;&quot;&gt;&lt;div style=&quot;text-align: left;&quot;&gt;&lt;span style=&quot;background-color: transparent;&quot;&gt;void HAL_TIM_MspPostInit (TIM_HandleTypeDef *htim)&lt;/span&gt;&lt;/div&gt;&lt;/span&gt;&lt;span style=&quot;text-align: center; background-color: transparent; font-style: italic;&quot;&gt;&lt;div style=&quot;text-align: left;&quot;&gt;&lt;span style=&quot;background-color: transparent;&quot;&gt;void Error_Handler(void)&lt;/span&gt;&lt;/div&gt;&lt;/span&gt;&lt;/div&gt;" style="text;strokeColor=none;fillColor=none;align=left;verticalAlign=middle;spacingLeft=4;spacingRight=4;overflow=hidden;points=[[0,0.5],[1,0.5]];portConstraint=eastwest;rotatable=0;whiteSpace=wrap;html=1;fontSize=14;fontFamily=Times New Roman;rounded=0;" parent="43" vertex="1">
                    <mxGeometry y="78.74000000000001" width="354.33" height="59.05" as="geometry"/>
                </mxCell>
                <mxCell id="46" value="&lt;i&gt;stm32fxx_hal.h&lt;/i&gt;" style="swimlane;fontStyle=0;childLayout=stackLayout;horizontal=1;startSize=30;horizontalStack=0;resizeParent=1;resizeParentMax=0;resizeLast=0;collapsible=1;marginBottom=0;whiteSpace=wrap;html=1;fontSize=14;fontFamily=Times New Roman;rounded=0;" parent="1" vertex="1">
                    <mxGeometry x="1370.8899999999999" y="615.86" width="196.85" height="78.74000000000001" as="geometry">
                        <mxRectangle x="551.18" y="314.6" width="98.425" height="39.37" as="alternateBounds"/>
                    </mxGeometry>
                </mxCell>
                <mxCell id="47" value="&lt;div style=&quot;text-align: justify;&quot;&gt;&lt;div style=&quot;text-align: left;&quot;&gt;&lt;font style=&quot;text-align: center;&quot;&gt;Заголовочный файл&lt;br&gt;&lt;/font&gt;&lt;font style=&quot;text-align: center;&quot;&gt;Компоненты&amp;nbsp;&lt;i&gt;STM32F407VGT6&lt;/i&gt;&lt;/font&gt;&lt;/div&gt;&lt;/div&gt;" style="text;strokeColor=none;fillColor=none;align=left;verticalAlign=middle;spacingLeft=4;spacingRight=4;overflow=hidden;points=[[0,0.5],[1,0.5]];portConstraint=eastwest;rotatable=0;whiteSpace=wrap;html=1;fontSize=14;fontFamily=Times New Roman;rounded=0;" parent="46" vertex="1">
                    <mxGeometry y="30" width="196.85" height="48.74" as="geometry"/>
                </mxCell>
                <mxCell id="58" style="edgeStyle=orthogonalEdgeStyle;html=1;entryX=0;entryY=0.5;entryDx=0;entryDy=0;dashed=1;endArrow=open;endFill=0;exitX=0.75;exitY=1;exitDx=0;exitDy=0;fontSize=14;fontFamily=Times New Roman;rounded=0;" parent="1" source="50" target="53" edge="1">
                    <mxGeometry relative="1" as="geometry">
                        <mxPoint x="662.34" y="674.96" as="sourcePoint"/>
                    </mxGeometry>
                </mxCell>
                <mxCell id="100" style="edgeStyle=orthogonalEdgeStyle;html=1;entryX=0.5;entryY=0;entryDx=0;entryDy=0;dashed=1;endArrow=open;endFill=0;fontSize=14;fontFamily=Times New Roman;rounded=0;" parent="1" source="50" target="97" edge="1">
                    <mxGeometry relative="1" as="geometry"/>
                </mxCell>
                <mxCell id="101" style="edgeStyle=orthogonalEdgeStyle;html=1;entryX=0.5;entryY=0;entryDx=0;entryDy=0;dashed=1;endArrow=open;endFill=0;exitX=0.5;exitY=1;exitDx=0;exitDy=0;fontSize=14;fontFamily=Times New Roman;rounded=0;" parent="1" source="50" target="90" edge="1">
                    <mxGeometry relative="1" as="geometry"/>
                </mxCell>
                <mxCell id="50" value="&lt;font style=&quot;color: rgb(63, 63, 63);&quot;&gt;&lt;i&gt;Operating_mode&lt;/i&gt;&lt;/font&gt;&lt;i style=&quot;color: rgb(63, 63, 63); background-color: transparent;&quot;&gt;.c&lt;/i&gt;" style="swimlane;fontStyle=0;childLayout=stackLayout;horizontal=1;startSize=30;horizontalStack=0;resizeParent=1;resizeParentMax=0;resizeLast=0;collapsible=1;marginBottom=0;whiteSpace=wrap;html=1;fontSize=14;fontFamily=Times New Roman;rounded=0;" parent="1" vertex="1">
                    <mxGeometry x="485.06000000000006" y="497.75" width="374.02" height="177.16000000000003" as="geometry">
                        <mxRectangle x="-295.27" y="78.74" width="98.425" height="39.37" as="alternateBounds"/>
                    </mxGeometry>
                </mxCell>
                <mxCell id="51" value="&lt;div style=&quot;text-align: justify;&quot;&gt;&lt;div style=&quot;text-align: left;&quot;&gt;Исполняемый файл&lt;/div&gt;&lt;font style=&quot;text-align: center; background-color: transparent;&quot;&gt;&lt;div style=&quot;text-align: left;&quot;&gt;&lt;span style=&quot;color: rgb(63, 63, 63); text-align: justify;&quot;&gt;Функции режимов работы&lt;/span&gt;&lt;/div&gt;&lt;/font&gt;&lt;/div&gt;" style="text;strokeColor=none;fillColor=none;align=left;verticalAlign=middle;spacingLeft=4;spacingRight=4;overflow=hidden;points=[[0,0.5],[1,0.5]];portConstraint=eastwest;rotatable=0;whiteSpace=wrap;html=1;fontSize=14;fontFamily=Times New Roman;rounded=0;" parent="50" vertex="1">
                    <mxGeometry y="30" width="374.02" height="48.74" as="geometry"/>
                </mxCell>
                <mxCell id="52" value="&lt;div style=&quot;text-align: justify;&quot;&gt;&lt;span style=&quot;text-align: center; background-color: transparent;&quot;&gt;&lt;div style=&quot;text-align: left;&quot;&gt;&lt;span style=&quot;color: rgb(63, 63, 63); text-align: justify; background-color: transparent;&quot;&gt;// Реализация методов&lt;br&gt;&lt;/span&gt;&lt;div style=&quot;color: rgb(63, 63, 63); text-align: justify;&quot;&gt;&lt;i style=&quot;background-color: transparent;&quot;&gt;void Mode_Manual (Motor *Motor_xx)&lt;/i&gt;&lt;/div&gt;&lt;div style=&quot;color: rgb(63, 63, 63); text-align: justify;&quot;&gt;&lt;i&gt;void&amp;nbsp;&lt;/i&gt;&lt;i style=&quot;background-color: transparent; color: rgb(63, 63, 63);&quot;&gt;Mode_Semi_automatic (Motor *Motor_xx)&lt;/i&gt;&lt;/div&gt;&lt;div style=&quot;color: rgb(63, 63, 63); text-align: justify;&quot;&gt;&lt;i style=&quot;background-color: transparent; color: rgb(63, 63, 63);&quot;&gt;void&amp;nbsp;&lt;/i&gt;&lt;i style=&quot;background-color: transparent; color: rgb(63, 63, 63);&quot;&gt;Mode_Moving_away_from_borders (Motor *Motor_xx)&lt;/i&gt;&lt;/div&gt;&lt;div style=&quot;color: rgb(63, 63, 63); text-align: justify;&quot;&gt;&lt;i style=&quot;background-color: transparent; color: rgb(63, 63, 63);&quot;&gt;void&amp;nbsp;&lt;/i&gt;&lt;i style=&quot;background-color: transparent; color: rgb(63, 63, 63);&quot;&gt;Mode_Automatic (Motor *Motor_xx)&lt;/i&gt;&lt;/div&gt;&lt;/div&gt;&lt;/span&gt;&lt;/div&gt;" style="text;strokeColor=none;fillColor=none;align=left;verticalAlign=middle;spacingLeft=4;spacingRight=4;overflow=hidden;points=[[0,0.5],[1,0.5]];portConstraint=eastwest;rotatable=0;whiteSpace=wrap;html=1;fontSize=14;fontFamily=Times New Roman;rounded=0;" parent="50" vertex="1">
                    <mxGeometry y="78.74000000000001" width="374.02" height="98.42" as="geometry"/>
                </mxCell>
                <mxCell id="84" style="edgeStyle=orthogonalEdgeStyle;html=1;exitX=0.5;exitY=1;exitDx=0;exitDy=0;entryX=0.5;entryY=0;entryDx=0;entryDy=0;dashed=1;endArrow=open;endFill=0;fontSize=14;fontFamily=Times New Roman;rounded=0;" parent="1" source="53" target="61" edge="1">
                    <mxGeometry relative="1" as="geometry"/>
                </mxCell>
                <mxCell id="85" style="edgeStyle=orthogonalEdgeStyle;html=1;entryX=0.5;entryY=0;entryDx=0;entryDy=0;exitX=0.5;exitY=1;exitDx=0;exitDy=0;dashed=1;endArrow=open;endFill=0;fontSize=14;fontFamily=Times New Roman;rounded=0;" parent="1" source="53" target="64" edge="1">
                    <mxGeometry relative="1" as="geometry">
                        <mxPoint x="1469.3400000000001" y="1048.96" as="targetPoint"/>
                    </mxGeometry>
                </mxCell>
                <mxCell id="86" style="edgeStyle=orthogonalEdgeStyle;html=1;exitX=0.5;exitY=1;exitDx=0;exitDy=0;entryX=0.5;entryY=0;entryDx=0;entryDy=0;dashed=1;endArrow=open;endFill=0;fontSize=14;fontFamily=Times New Roman;rounded=0;" parent="1" source="53" target="74" edge="1">
                    <mxGeometry relative="1" as="geometry">
                        <mxPoint x="1548.3400000000001" y="950.96" as="targetPoint"/>
                    </mxGeometry>
                </mxCell>
                <mxCell id="87" style="edgeStyle=orthogonalEdgeStyle;html=1;exitX=0.5;exitY=1;exitDx=0;exitDy=0;entryX=0.5;entryY=0;entryDx=0;entryDy=0;dashed=1;endArrow=open;endFill=0;fontSize=14;fontFamily=Times New Roman;rounded=0;" parent="1" source="53" target="79" edge="1">
                    <mxGeometry relative="1" as="geometry">
                        <mxPoint x="2020.3400000000001" y="989.96" as="targetPoint"/>
                    </mxGeometry>
                </mxCell>
                <mxCell id="88" style="edgeStyle=orthogonalEdgeStyle;html=1;exitX=0;exitY=0;exitDx=0;exitDy=0;entryX=0;entryY=0.5;entryDx=0;entryDy=0;dashed=1;endArrow=open;endFill=0;fontSize=14;fontFamily=Times New Roman;rounded=0;" parent="1" source="121" target="81" edge="1">
                    <mxGeometry relative="1" as="geometry">
                        <mxPoint x="1607.1100000000001" y="1235.5750000000005" as="targetPoint"/>
                        <mxPoint x="1095.2950000000005" y="930.4599999999998" as="sourcePoint"/>
                        <Array as="points">
                            <mxPoint x="1115.3400000000001" y="930.96"/>
                            <mxPoint x="1587.3400000000001" y="930.96"/>
                            <mxPoint x="1587.3400000000001" y="1196.96"/>
                        </Array>
                    </mxGeometry>
                </mxCell>
                <mxCell id="89" style="edgeStyle=orthogonalEdgeStyle;html=1;exitX=0.5;exitY=1;exitDx=0;exitDy=0;dashed=1;endArrow=open;endFill=0;entryX=1;entryY=0.5;entryDx=0;entryDy=0;fontSize=14;fontFamily=Times New Roman;rounded=0;" parent="1" source="53" target="72" edge="1">
                    <mxGeometry relative="1" as="geometry">
                        <mxPoint x="1469.3400000000001" y="1087.96" as="targetPoint"/>
                        <Array as="points">
                            <mxPoint x="1115.3400000000001" y="930.96"/>
                            <mxPoint x="1587.3400000000001" y="930.96"/>
                            <mxPoint x="1587.3400000000001" y="1166.96"/>
                        </Array>
                    </mxGeometry>
                </mxCell>
                <mxCell id="53" value="&lt;font style=&quot;color: rgb(63, 63, 63);&quot;&gt;&lt;i&gt;Operating_mode&lt;/i&gt;&lt;/font&gt;&lt;i style=&quot;color: rgb(63, 63, 63); background-color: transparent;&quot;&gt;.h&lt;/i&gt;" style="swimlane;fontStyle=0;childLayout=stackLayout;horizontal=1;startSize=30;horizontalStack=0;resizeParent=1;resizeParentMax=0;resizeLast=0;collapsible=1;marginBottom=0;whiteSpace=wrap;html=1;fontSize=14;fontFamily=Times New Roman;rounded=0;" parent="1" vertex="1">
                    <mxGeometry x="937.82" y="615.86" width="354.33" height="275.59000000000003" as="geometry">
                        <mxRectangle x="157.48" y="393.34000000000003" width="98.425" height="39.37" as="alternateBounds"/>
                    </mxGeometry>
                </mxCell>
                <mxCell id="54" value="&lt;div style=&quot;text-align: justify;&quot;&gt;&lt;div style=&quot;text-align: left;&quot;&gt;&lt;font&gt;&lt;span style=&quot;background-color: transparent;&quot;&gt;Заголовочный файл&lt;/span&gt;&lt;/font&gt;&lt;/div&gt;&lt;font style=&quot;text-align: center; background-color: transparent;&quot;&gt;&lt;div style=&quot;text-align: left;&quot;&gt;&lt;span style=&quot;color: rgb(63, 63, 63); text-align: justify;&quot;&gt;Функции режимов работы&lt;/span&gt;&lt;/div&gt;&lt;/font&gt;&lt;/div&gt;" style="text;strokeColor=none;fillColor=none;align=left;verticalAlign=middle;spacingLeft=4;spacingRight=4;overflow=hidden;points=[[0,0.5],[1,0.5]];portConstraint=eastwest;rotatable=0;whiteSpace=wrap;html=1;fontSize=14;fontFamily=Times New Roman;rounded=0;" parent="53" vertex="1">
                    <mxGeometry y="30" width="354.33" height="48.74" as="geometry"/>
                </mxCell>
                <mxCell id="55" value="&lt;div style=&quot;text-align: justify;&quot;&gt;&lt;span style=&quot;text-align: center; background-color: transparent;&quot;&gt;&lt;div style=&quot;text-align: left;&quot;&gt;&lt;span style=&quot;color: rgb(63, 63, 63); text-align: justify; background-color: transparent;&quot;&gt;// Прототипы методов&lt;br&gt;&lt;/span&gt;&lt;div style=&quot;color: rgb(63, 63, 63); text-align: justify;&quot;&gt;&lt;i style=&quot;background-color: transparent;&quot;&gt;void Mode_Manual (Motor *Motor_xx)&lt;/i&gt;&lt;/div&gt;&lt;div style=&quot;color: rgb(63, 63, 63); text-align: justify;&quot;&gt;&lt;i&gt;void&amp;nbsp;&lt;/i&gt;&lt;i style=&quot;background-color: transparent; color: rgb(63, 63, 63);&quot;&gt;Mode_Semi_automatic (Motor *Motor_xx)&lt;/i&gt;&lt;/div&gt;&lt;div style=&quot;color: rgb(63, 63, 63); text-align: justify;&quot;&gt;&lt;i style=&quot;background-color: transparent; color: rgb(63, 63, 63);&quot;&gt;void&amp;nbsp;&lt;/i&gt;&lt;i style=&quot;background-color: transparent; color: rgb(63, 63, 63);&quot;&gt;Mode_Moving_away_from_borders (Motor *Motor_xx)&lt;/i&gt;&lt;/div&gt;&lt;div style=&quot;color: rgb(63, 63, 63); text-align: justify;&quot;&gt;&lt;i style=&quot;background-color: transparent; color: rgb(63, 63, 63);&quot;&gt;void&amp;nbsp;&lt;/i&gt;&lt;i style=&quot;background-color: transparent; color: rgb(63, 63, 63);&quot;&gt;Mode_Automatic (Motor *Motor_xx)&lt;/i&gt;&lt;/div&gt;&lt;/div&gt;&lt;/span&gt;&lt;/div&gt;" style="text;strokeColor=none;fillColor=none;align=left;verticalAlign=middle;spacingLeft=4;spacingRight=4;overflow=hidden;points=[[0,0.5],[1,0.5]];portConstraint=eastwest;rotatable=0;whiteSpace=wrap;html=1;fontSize=14;fontFamily=Times New Roman;rounded=0;" parent="53" vertex="1">
                    <mxGeometry y="78.74000000000001" width="354.33" height="98.42" as="geometry"/>
                </mxCell>
                <mxCell id="103" value="// Структуры&lt;div&gt;&lt;i&gt;typedef struct &lt;/i&gt;{&lt;/div&gt;&lt;div&gt;&amp;nbsp; &amp;nbsp;&lt;i&gt;float Buffer_differens_angular&lt;/i&gt;[2];&lt;/div&gt;&lt;div&gt;&amp;nbsp; &lt;i&gt;char Requirement_stop&lt;/i&gt;;&lt;/div&gt;&lt;div&gt;} &lt;i&gt;Mode_Automatic_data&lt;/i&gt;;&lt;/div&gt;" style="text;strokeColor=none;fillColor=none;align=left;verticalAlign=middle;spacingLeft=4;spacingRight=4;overflow=hidden;points=[[0,0.5],[1,0.5]];portConstraint=eastwest;rotatable=0;whiteSpace=wrap;html=1;fontSize=14;fontFamily=Times New Roman;rounded=0;" parent="53" vertex="1">
                    <mxGeometry y="177.16000000000003" width="354.33" height="98.43" as="geometry"/>
                </mxCell>
                <mxCell id="60" value="&lt;font&gt;#&lt;i&gt;include&lt;/i&gt;&lt;/font&gt;" style="text;html=1;align=center;verticalAlign=middle;whiteSpace=wrap;rounded=0;fontSize=14;fontFamily=Times New Roman;" parent="1" vertex="1">
                    <mxGeometry x="780.34" y="674.91" width="78.74" height="39.01" as="geometry"/>
                </mxCell>
                <mxCell id="122" style="edgeStyle=orthogonalEdgeStyle;html=1;entryX=0.5;entryY=0;entryDx=0;entryDy=0;exitX=0.5;exitY=1;exitDx=0;exitDy=0;dashed=1;endArrow=open;endFill=0;fontSize=14;fontFamily=Times New Roman;rounded=0;" parent="1" source="61" target="117" edge="1">
                    <mxGeometry relative="1" as="geometry">
                        <mxPoint x="977.3400000000001" y="1068.96" as="sourcePoint"/>
                        <Array as="points">
                            <mxPoint x="1115.3400000000001" y="1284.96"/>
                            <mxPoint x="1282.3400000000001" y="1284.96"/>
                        </Array>
                    </mxGeometry>
                </mxCell>
                <mxCell id="123" style="edgeStyle=orthogonalEdgeStyle;html=1;entryX=0.5;entryY=0;entryDx=0;entryDy=0;exitX=0.5;exitY=1;exitDx=0;exitDy=0;dashed=1;endArrow=open;endFill=0;fontSize=14;fontFamily=Times New Roman;rounded=0;" parent="1" source="61" target="115" edge="1">
                    <mxGeometry relative="1" as="geometry">
                        <mxPoint x="1095.2999999999997" y="1186.7300000000005" as="targetPoint"/>
                    </mxGeometry>
                </mxCell>
                <mxCell id="61" value="&lt;i&gt;Raspberry.h&lt;/i&gt;" style="swimlane;fontStyle=0;childLayout=stackLayout;horizontal=1;startSize=30;horizontalStack=0;resizeParent=1;resizeParentMax=0;resizeLast=0;collapsible=1;marginBottom=0;whiteSpace=wrap;html=1;fontSize=14;fontFamily=Times New Roman;rounded=0;" parent="1" vertex="1">
                    <mxGeometry x="957.51" y="970.19" width="314.96" height="275.59000000000003" as="geometry">
                        <mxRectangle x="177.16999999999996" y="610.23" width="98.425" height="39.37" as="alternateBounds"/>
                    </mxGeometry>
                </mxCell>
                <mxCell id="62" value="&lt;div style=&quot;text-align: justify;&quot;&gt;&lt;div style=&quot;text-align: left;&quot;&gt;&lt;font&gt;&lt;span style=&quot;background-color: transparent;&quot;&gt;Заголовочный файл&lt;/span&gt;&lt;/font&gt;&lt;/div&gt;&lt;font style=&quot;text-align: center; background-color: transparent;&quot;&gt;&lt;div style=&quot;text-align: left;&quot;&gt;&lt;span style=&quot;color: rgb(63, 63, 63); text-align: justify; background-color: transparent;&quot;&gt;Обработка сообщений&amp;nbsp;&lt;/span&gt;&lt;i style=&quot;color: rgb(63, 63, 63); text-align: justify; background-color: transparent;&quot;&gt;UART&lt;/i&gt;&lt;/div&gt;&lt;/font&gt;&lt;/div&gt;" style="text;strokeColor=none;fillColor=none;align=left;verticalAlign=middle;spacingLeft=4;spacingRight=4;overflow=hidden;points=[[0,0.5],[1,0.5]];portConstraint=eastwest;rotatable=0;whiteSpace=wrap;html=1;fontSize=14;fontFamily=Times New Roman;rounded=0;" parent="61" vertex="1">
                    <mxGeometry y="30" width="314.96" height="48.74" as="geometry"/>
                </mxCell>
                <mxCell id="63" value="&lt;div style=&quot;text-align: justify;&quot;&gt;&lt;span style=&quot;text-align: center; background-color: transparent;&quot;&gt;&lt;div style=&quot;text-align: left;&quot;&gt;&lt;span style=&quot;color: rgb(63, 63, 63); text-align: justify; background-color: transparent;&quot;&gt;// Прототипы методов&lt;br&gt;&lt;/span&gt;&lt;div style=&quot;color: rgb(63, 63, 63); text-align: justify;&quot;&gt;&lt;div&gt;&lt;span style=&quot;background-color: transparent;&quot;&gt;&lt;i&gt;void Raspberry_DatPars(unsigned char Rx_data[21])&lt;/i&gt;&lt;/span&gt;&lt;/div&gt;&lt;div&gt;&lt;span style=&quot;background-color: transparent;&quot;&gt;&lt;i&gt;void Raspberry_CreatMes(void)&lt;/i&gt;&lt;/span&gt;&lt;/div&gt;&lt;/div&gt;&lt;/div&gt;&lt;/span&gt;&lt;/div&gt;" style="text;strokeColor=none;fillColor=none;align=left;verticalAlign=middle;spacingLeft=4;spacingRight=4;overflow=hidden;points=[[0,0.5],[1,0.5]];portConstraint=eastwest;rotatable=0;whiteSpace=wrap;html=1;fontSize=14;fontFamily=Times New Roman;rounded=0;" parent="61" vertex="1">
                    <mxGeometry y="78.74000000000001" width="314.96" height="59.05" as="geometry"/>
                </mxCell>
                <mxCell id="110" value="// Структуры&lt;div&gt;&lt;i&gt;typedef struct &lt;/i&gt;{&lt;/div&gt;&lt;div&gt;&amp;nbsp; &lt;i&gt;UART_HandleTypedef &lt;/i&gt;*&lt;i&gt;Uart_port&lt;/i&gt;&lt;/div&gt;&lt;div&gt;&amp;nbsp; &lt;i&gt;unsigned char Rx_data&lt;/i&gt;[21];&lt;/div&gt;&lt;div&gt;&amp;nbsp; &lt;i&gt;unsigned char Tx_data&lt;/i&gt;[13];&lt;/div&gt;&lt;div&gt;&amp;nbsp; &lt;i&gt;float Azimuth&lt;/i&gt;;&lt;/div&gt;&lt;div&gt;&amp;nbsp; &lt;i&gt;float Elevation&lt;/i&gt;;&lt;/div&gt;&lt;div&gt;} &lt;i&gt;Raspberry&lt;/i&gt;;&lt;/div&gt;" style="text;strokeColor=none;fillColor=none;align=left;verticalAlign=middle;spacingLeft=4;spacingRight=4;overflow=hidden;points=[[0,0.5],[1,0.5]];portConstraint=eastwest;rotatable=0;whiteSpace=wrap;html=1;fontSize=14;fontFamily=Times New Roman;rounded=0;" parent="61" vertex="1">
                    <mxGeometry y="137.79000000000002" width="314.96" height="137.8" as="geometry"/>
                </mxCell>
                <mxCell id="140" style="edgeStyle=orthogonalEdgeStyle;html=1;entryX=0.5;entryY=0;entryDx=0;entryDy=0;exitX=0.5;exitY=1;exitDx=0;exitDy=0;dashed=1;endArrow=open;endFill=0;fontSize=14;fontFamily=Times New Roman;rounded=0;" edge="1" parent="1" source="64" target="117">
                    <mxGeometry relative="1" as="geometry">
                        <mxPoint x="1686.3400000000001" y="1363.96" as="targetPoint"/>
                        <mxPoint x="1961.3400000000001" y="1265.96" as="sourcePoint"/>
                        <Array as="points">
                            <mxPoint x="2040.3400000000001" y="1284.96"/>
                            <mxPoint x="1282.3400000000001" y="1284.96"/>
                        </Array>
                    </mxGeometry>
                </mxCell>
                <mxCell id="177" style="edgeStyle=orthogonalEdgeStyle;html=1;entryX=0.5;entryY=0;entryDx=0;entryDy=0;exitX=0.5;exitY=1;exitDx=0;exitDy=0;dashed=1;endArrow=open;endFill=0;" edge="1" parent="1" source="64" target="172">
                    <mxGeometry relative="1" as="geometry">
                        <mxPoint x="1929" y="1122" as="sourcePoint"/>
                    </mxGeometry>
                </mxCell>
                <mxCell id="64" value="&lt;i&gt;Encoder.h&lt;/i&gt;" style="swimlane;fontStyle=0;childLayout=stackLayout;horizontal=1;startSize=30;horizontalStack=0;resizeParent=1;resizeParentMax=0;resizeLast=0;collapsible=1;marginBottom=0;whiteSpace=wrap;html=1;fontSize=14;fontFamily=Times New Roman;rounded=0;" parent="1" vertex="1">
                    <mxGeometry x="1882.6999999999998" y="970.19" width="314.96" height="255.90000000000003" as="geometry">
                        <mxRectangle x="1882.6999999999998" y="970.19" width="98.425" height="39.37" as="alternateBounds"/>
                    </mxGeometry>
                </mxCell>
                <mxCell id="65" value="&lt;div style=&quot;text-align: justify;&quot;&gt;&lt;div style=&quot;text-align: left;&quot;&gt;&lt;font&gt;&lt;span style=&quot;background-color: transparent;&quot;&gt;Заголовочный файл&lt;/span&gt;&lt;/font&gt;&lt;/div&gt;&lt;font style=&quot;text-align: center; background-color: transparent;&quot;&gt;&lt;div style=&quot;text-align: justify;&quot;&gt;Определение углов системы&lt;/div&gt;&lt;/font&gt;&lt;/div&gt;" style="text;strokeColor=none;fillColor=none;align=left;verticalAlign=middle;spacingLeft=4;spacingRight=4;overflow=hidden;points=[[0,0.5],[1,0.5]];portConstraint=eastwest;rotatable=0;whiteSpace=wrap;html=1;fontSize=14;fontFamily=Times New Roman;rounded=0;" parent="64" vertex="1">
                    <mxGeometry y="30" width="314.96" height="48.74" as="geometry"/>
                </mxCell>
                <mxCell id="66" value="&lt;div style=&quot;text-align: justify;&quot;&gt;&lt;span style=&quot;text-align: center; background-color: transparent;&quot;&gt;&lt;div style=&quot;text-align: left;&quot;&gt;&lt;span style=&quot;color: rgb(63, 63, 63); text-align: justify; background-color: transparent;&quot;&gt;// Прототипы методов&lt;br&gt;&lt;/span&gt;&lt;div style=&quot;color: rgb(63, 63, 63); text-align: justify;&quot;&gt;&lt;div&gt;&lt;span style=&quot;background-color: transparent;&quot;&gt;&lt;i&gt;void Encoder_Init(Encoder *Encoder_xx)&lt;/i&gt;&lt;/span&gt;&lt;/div&gt;&lt;div&gt;&lt;span style=&quot;background-color: transparent;&quot;&gt;&lt;i&gt;void&amp;nbsp;&lt;/i&gt;&lt;/span&gt;&lt;i style=&quot;color: rgb(63, 63, 63);&quot;&gt;Encoder_GetAngular&lt;/i&gt;&lt;span style=&quot;background-color: transparent;&quot;&gt;&lt;i&gt;(&lt;/i&gt;&lt;/span&gt;&lt;i style=&quot;color: rgb(63, 63, 63);&quot;&gt;Encoder *Encoder_xx&lt;/i&gt;&lt;span style=&quot;background-color: transparent;&quot;&gt;&lt;i&gt;)&lt;/i&gt;&lt;/span&gt;&lt;/div&gt;&lt;/div&gt;&lt;/div&gt;&lt;/span&gt;&lt;/div&gt;" style="text;strokeColor=none;fillColor=none;align=left;verticalAlign=middle;spacingLeft=4;spacingRight=4;overflow=hidden;points=[[0,0.5],[1,0.5]];portConstraint=eastwest;rotatable=0;whiteSpace=wrap;html=1;fontSize=14;fontFamily=Times New Roman;rounded=0;" parent="64" vertex="1">
                    <mxGeometry y="78.74000000000001" width="314.96" height="59.05" as="geometry"/>
                </mxCell>
                <mxCell id="124" value="// Структуры&lt;div&gt;&lt;i&gt;typedef struct&lt;/i&gt; {&lt;/div&gt;&lt;div&gt;&amp;nbsp; &lt;i&gt;TIM_HandleTypeDef *Timer_number&lt;/i&gt;;&lt;/div&gt;&lt;div&gt;&amp;nbsp; &lt;i&gt;unsigned short Pulses_per_revolution&lt;/i&gt;;&lt;/div&gt;&lt;div&gt;&amp;nbsp; &lt;i&gt;unsigned short Safe_start_value&lt;/i&gt;;&lt;/div&gt;&lt;div&gt;} &lt;i&gt;Encoder&lt;/i&gt;;&lt;/div&gt;" style="text;strokeColor=none;fillColor=none;align=left;verticalAlign=middle;spacingLeft=4;spacingRight=4;overflow=hidden;points=[[0,0.5],[1,0.5]];portConstraint=eastwest;rotatable=0;whiteSpace=wrap;html=1;fontSize=14;fontFamily=Times New Roman;rounded=0;" parent="64" vertex="1">
                    <mxGeometry y="137.79000000000002" width="314.96" height="118.11" as="geometry"/>
                </mxCell>
                <mxCell id="72" value="&lt;i&gt;stdlib.h&lt;/i&gt;" style="swimlane;fontStyle=0;childLayout=stackLayout;horizontal=1;startSize=30;horizontalStack=0;resizeParent=1;resizeParentMax=0;resizeLast=0;collapsible=1;marginBottom=0;whiteSpace=wrap;html=1;fontSize=14;fontFamily=Times New Roman;rounded=0;" parent="1" vertex="1">
                    <mxGeometry x="1351.2" y="1127.67" width="177.17" height="78.74000000000001" as="geometry">
                        <mxRectangle x="570.86" y="748.02" width="98.425" height="39.37" as="alternateBounds"/>
                    </mxGeometry>
                </mxCell>
                <mxCell id="73" value="&lt;div style=&quot;text-align: justify;&quot;&gt;&lt;div style=&quot;text-align: left;&quot;&gt;&lt;font style=&quot;text-align: center;&quot;&gt;Заголовочный файл&lt;br&gt;&lt;/font&gt;&lt;font style=&quot;text-align: center;&quot;&gt;Стандартные типы данных&lt;/font&gt;&lt;/div&gt;&lt;/div&gt;" style="text;strokeColor=none;fillColor=none;align=left;verticalAlign=middle;spacingLeft=4;spacingRight=4;overflow=hidden;points=[[0,0.5],[1,0.5]];portConstraint=eastwest;rotatable=0;whiteSpace=wrap;html=1;fontSize=14;fontFamily=Times New Roman;rounded=0;" parent="72" vertex="1">
                    <mxGeometry y="30" width="177.17" height="48.74" as="geometry"/>
                </mxCell>
                <mxCell id="74" value="&lt;i&gt;stm32fxx_hal.h&lt;/i&gt;" style="swimlane;fontStyle=0;childLayout=stackLayout;horizontal=1;startSize=30;horizontalStack=0;resizeParent=1;resizeParentMax=0;resizeLast=0;collapsible=1;marginBottom=0;whiteSpace=wrap;html=1;fontSize=14;fontFamily=Times New Roman;rounded=0;" parent="1" vertex="1">
                    <mxGeometry x="1351.1999999999998" y="970.19" width="196.85" height="78.74000000000001" as="geometry">
                        <mxRectangle x="1102.36" y="708.6600000000001" width="98.425" height="39.37" as="alternateBounds"/>
                    </mxGeometry>
                </mxCell>
                <mxCell id="75" value="&lt;div style=&quot;text-align: justify;&quot;&gt;&lt;div style=&quot;text-align: left;&quot;&gt;&lt;font style=&quot;text-align: center;&quot;&gt;Заголовочный файл&lt;br&gt;&lt;/font&gt;&lt;font style=&quot;text-align: center;&quot;&gt;Компоненты&amp;nbsp;&lt;i&gt;STM32F407VGT6&lt;/i&gt;&lt;/font&gt;&lt;/div&gt;&lt;/div&gt;" style="text;strokeColor=none;fillColor=none;align=left;verticalAlign=middle;spacingLeft=4;spacingRight=4;overflow=hidden;points=[[0,0.5],[1,0.5]];portConstraint=eastwest;rotatable=0;whiteSpace=wrap;html=1;fontSize=14;fontFamily=Times New Roman;rounded=0;" parent="74" vertex="1">
                    <mxGeometry y="30" width="196.85" height="48.74" as="geometry"/>
                </mxCell>
                <mxCell id="79" value="&lt;i&gt;stdio.h&lt;/i&gt;" style="swimlane;fontStyle=0;childLayout=stackLayout;horizontal=1;startSize=30;horizontalStack=0;resizeParent=1;resizeParentMax=0;resizeLast=0;collapsible=1;marginBottom=0;whiteSpace=wrap;html=1;fontSize=14;fontFamily=Times New Roman;rounded=0;" parent="1" vertex="1">
                    <mxGeometry x="1626.8000000000002" y="970.19" width="177.17" height="98.43" as="geometry">
                        <mxRectangle x="1633.8500000000001" y="708.66" width="98.425" height="39.37" as="alternateBounds"/>
                    </mxGeometry>
                </mxCell>
                <mxCell id="80" value="&lt;div style=&quot;text-align: justify;&quot;&gt;&lt;div style=&quot;text-align: left;&quot;&gt;&lt;font style=&quot;text-align: center;&quot;&gt;Заголовочный файл&lt;br&gt;&lt;/font&gt;&lt;font style=&quot;text-align: center;&quot;&gt;Стандартные функции ввода/вывода&lt;/font&gt;&lt;/div&gt;&lt;/div&gt;" style="text;strokeColor=none;fillColor=none;align=left;verticalAlign=middle;spacingLeft=4;spacingRight=4;overflow=hidden;points=[[0,0.5],[1,0.5]];portConstraint=eastwest;rotatable=0;whiteSpace=wrap;html=1;fontSize=14;fontFamily=Times New Roman;rounded=0;" parent="79" vertex="1">
                    <mxGeometry y="30" width="177.17" height="68.43" as="geometry"/>
                </mxCell>
                <mxCell id="81" value="&lt;i&gt;string.h&lt;/i&gt;" style="swimlane;fontStyle=0;childLayout=stackLayout;horizontal=1;startSize=30;horizontalStack=0;resizeParent=1;resizeParentMax=0;resizeLast=0;collapsible=1;marginBottom=0;whiteSpace=wrap;html=1;fontSize=14;fontFamily=Times New Roman;rounded=0;" parent="1" vertex="1">
                    <mxGeometry x="1626.8000000000002" y="1147.35" width="177.17" height="98.43" as="geometry">
                        <mxRectangle x="846.4600000000003" y="787.39" width="98.425" height="39.37" as="alternateBounds"/>
                    </mxGeometry>
                </mxCell>
                <mxCell id="82" value="&lt;div style=&quot;text-align: justify;&quot;&gt;&lt;div style=&quot;text-align: left;&quot;&gt;&lt;font style=&quot;text-align: center;&quot;&gt;Заголовочный файл&lt;br&gt;&lt;/font&gt;&lt;font style=&quot;text-align: center;&quot;&gt;Стандартные функции работы со строками&lt;/font&gt;&lt;/div&gt;&lt;/div&gt;" style="text;strokeColor=none;fillColor=none;align=left;verticalAlign=middle;spacingLeft=4;spacingRight=4;overflow=hidden;points=[[0,0.5],[1,0.5]];portConstraint=eastwest;rotatable=0;whiteSpace=wrap;html=1;fontSize=14;fontFamily=Times New Roman;rounded=0;" parent="81" vertex="1">
                    <mxGeometry y="30" width="177.17" height="68.43" as="geometry"/>
                </mxCell>
                <mxCell id="90" value="&lt;i&gt;Atumatic_data_AZ&lt;/i&gt;:&amp;nbsp;&lt;i&gt;Mode_Atumatic_data&lt;/i&gt;" style="swimlane;fontStyle=0;childLayout=stackLayout;horizontal=1;startSize=30;horizontalStack=0;resizeParent=1;resizeParentMax=0;resizeLast=0;collapsible=1;marginBottom=0;whiteSpace=wrap;html=1;fontSize=14;fontFamily=Times New Roman;rounded=0;" parent="1" vertex="1">
                    <mxGeometry x="52.000000000000114" y="753.66" width="275.59" height="90" as="geometry">
                        <mxRectangle x="-688.9699999999999" y="708.66" width="177.165" height="39.37" as="alternateBounds"/>
                    </mxGeometry>
                </mxCell>
                <mxCell id="91" value="&lt;i&gt;Buffer_differens_angular&lt;/i&gt;[2] = {0}" style="text;strokeColor=none;fillColor=none;align=left;verticalAlign=middle;spacingLeft=4;spacingRight=4;overflow=hidden;points=[[0,0.5],[1,0.5]];portConstraint=eastwest;rotatable=0;whiteSpace=wrap;html=1;fontSize=14;fontFamily=Times New Roman;rounded=0;" parent="90" vertex="1">
                    <mxGeometry y="30" width="275.59" height="30" as="geometry"/>
                </mxCell>
                <mxCell id="92" value="&lt;i&gt;Requirement_stop = &lt;/i&gt;&#39;&lt;i&gt;N&lt;/i&gt;&#39;" style="text;strokeColor=none;fillColor=none;align=left;verticalAlign=middle;spacingLeft=4;spacingRight=4;overflow=hidden;points=[[0,0.5],[1,0.5]];portConstraint=eastwest;rotatable=0;whiteSpace=wrap;html=1;fontSize=14;fontFamily=Times New Roman;rounded=0;" parent="90" vertex="1">
                    <mxGeometry y="60" width="275.59" height="30" as="geometry"/>
                </mxCell>
                <mxCell id="97" value="&lt;i&gt;Atumatic_data_EL&lt;/i&gt;:&amp;nbsp;&lt;i&gt;Mode_Atumatic_data&lt;/i&gt;" style="swimlane;fontStyle=0;childLayout=stackLayout;horizontal=1;startSize=30;horizontalStack=0;resizeParent=1;resizeParentMax=0;resizeLast=0;collapsible=1;marginBottom=0;whiteSpace=wrap;html=1;fontSize=14;fontFamily=Times New Roman;rounded=0;" parent="1" vertex="1">
                    <mxGeometry x="406.31999999999994" y="753.66" width="275.59" height="90" as="geometry">
                        <mxRectangle x="-334.64000000000004" y="708.6600000000001" width="177.165" height="39.37" as="alternateBounds"/>
                    </mxGeometry>
                </mxCell>
                <mxCell id="98" value="&lt;i&gt;Buffer_differens_angular&lt;/i&gt;[2] = {0}" style="text;strokeColor=none;fillColor=none;align=left;verticalAlign=middle;spacingLeft=4;spacingRight=4;overflow=hidden;points=[[0,0.5],[1,0.5]];portConstraint=eastwest;rotatable=0;whiteSpace=wrap;html=1;fontSize=14;fontFamily=Times New Roman;rounded=0;" parent="97" vertex="1">
                    <mxGeometry y="30" width="275.59" height="30" as="geometry"/>
                </mxCell>
                <mxCell id="99" value="&lt;i&gt;Requirement_stop = &lt;/i&gt;&#39;&lt;i&gt;N&lt;/i&gt;&#39;" style="text;strokeColor=none;fillColor=none;align=left;verticalAlign=middle;spacingLeft=4;spacingRight=4;overflow=hidden;points=[[0,0.5],[1,0.5]];portConstraint=eastwest;rotatable=0;whiteSpace=wrap;html=1;fontSize=14;fontFamily=Times New Roman;rounded=0;" parent="97" vertex="1">
                    <mxGeometry y="60" width="275.59" height="30" as="geometry"/>
                </mxCell>
                <mxCell id="107" style="edgeStyle=orthogonalEdgeStyle;html=1;entryX=0;entryY=0.5;entryDx=0;entryDy=0;exitX=0.5;exitY=1;exitDx=0;exitDy=0;dashed=1;endArrow=open;endFill=0;fontSize=14;fontFamily=Times New Roman;rounded=0;" parent="1" source="104" target="61" edge="1">
                    <mxGeometry relative="1" as="geometry">
                        <mxPoint x="859.0799999999998" y="1285.1549999999997" as="targetPoint"/>
                    </mxGeometry>
                </mxCell>
                <mxCell id="114" style="edgeStyle=orthogonalEdgeStyle;html=1;entryX=0.5;entryY=0;entryDx=0;entryDy=0;dashed=1;endArrow=open;endFill=0;exitX=0.25;exitY=1;exitDx=0;exitDy=0;fontSize=14;fontFamily=Times New Roman;rounded=0;" parent="1" source="104" target="111" edge="1">
                    <mxGeometry relative="1" as="geometry"/>
                </mxCell>
                <mxCell id="104" value="&lt;i&gt;Raspberry.c&lt;/i&gt;" style="swimlane;fontStyle=0;childLayout=stackLayout;horizontal=1;startSize=30;horizontalStack=0;resizeParent=1;resizeParentMax=0;resizeLast=0;collapsible=1;marginBottom=0;whiteSpace=wrap;html=1;fontSize=14;fontFamily=Times New Roman;rounded=0;" parent="1" vertex="1">
                    <mxGeometry x="563.8100000000001" y="891.4499999999998" width="314.96" height="137.79000000000002" as="geometry">
                        <mxRectangle x="-216.52999999999997" y="531.4899999999998" width="98.425" height="39.37" as="alternateBounds"/>
                    </mxGeometry>
                </mxCell>
                <mxCell id="105" value="&lt;div style=&quot;text-align: justify;&quot;&gt;&lt;div style=&quot;text-align: left;&quot;&gt;&lt;font&gt;&lt;span style=&quot;background-color: transparent;&quot;&gt;Исполняемый файл&lt;/span&gt;&lt;/font&gt;&lt;/div&gt;&lt;font style=&quot;text-align: center; background-color: transparent;&quot;&gt;&lt;div style=&quot;text-align: left;&quot;&gt;&lt;span style=&quot;color: rgb(63, 63, 63); text-align: justify; background-color: transparent;&quot;&gt;Обработка сообщений&amp;nbsp;&lt;/span&gt;&lt;i style=&quot;color: rgb(63, 63, 63); text-align: justify; background-color: transparent;&quot;&gt;UART&lt;/i&gt;&lt;/div&gt;&lt;/font&gt;&lt;/div&gt;" style="text;strokeColor=none;fillColor=none;align=left;verticalAlign=middle;spacingLeft=4;spacingRight=4;overflow=hidden;points=[[0,0.5],[1,0.5]];portConstraint=eastwest;rotatable=0;whiteSpace=wrap;html=1;fontSize=14;fontFamily=Times New Roman;rounded=0;" parent="104" vertex="1">
                    <mxGeometry y="30" width="314.96" height="48.74" as="geometry"/>
                </mxCell>
                <mxCell id="106" value="&lt;div style=&quot;text-align: justify;&quot;&gt;&lt;span style=&quot;text-align: center; background-color: transparent;&quot;&gt;&lt;div style=&quot;text-align: left;&quot;&gt;&lt;span style=&quot;color: rgb(63, 63, 63); text-align: justify; background-color: transparent;&quot;&gt;// Реализация методов&lt;br&gt;&lt;/span&gt;&lt;div style=&quot;color: rgb(63, 63, 63); text-align: justify;&quot;&gt;&lt;div&gt;&lt;span style=&quot;background-color: transparent;&quot;&gt;&lt;i&gt;void Raspberry_DatPars(unsigned char Rx_data[21])&lt;/i&gt;&lt;/span&gt;&lt;/div&gt;&lt;div&gt;&lt;span style=&quot;background-color: transparent;&quot;&gt;&lt;i&gt;void Raspberry_CreatMes(void)&lt;/i&gt;&lt;/span&gt;&lt;/div&gt;&lt;/div&gt;&lt;/div&gt;&lt;/span&gt;&lt;/div&gt;" style="text;strokeColor=none;fillColor=none;align=left;verticalAlign=middle;spacingLeft=4;spacingRight=4;overflow=hidden;points=[[0,0.5],[1,0.5]];portConstraint=eastwest;rotatable=0;whiteSpace=wrap;html=1;fontSize=14;fontFamily=Times New Roman;rounded=0;" parent="104" vertex="1">
                    <mxGeometry y="78.74000000000001" width="314.96" height="59.05" as="geometry"/>
                </mxCell>
                <mxCell id="109" value="&lt;font&gt;#&lt;i&gt;include&lt;/i&gt;&lt;/font&gt;" style="text;html=1;align=center;verticalAlign=middle;whiteSpace=wrap;rounded=0;fontSize=14;fontFamily=Times New Roman;" parent="1" vertex="1">
                    <mxGeometry x="721.28" y="1029.61" width="78.74" height="39.01" as="geometry"/>
                </mxCell>
                <mxCell id="111" value="&lt;i&gt;RP_Message&lt;/i&gt;:&amp;nbsp;&lt;i&gt;Raspberry&lt;/i&gt;" style="swimlane;fontStyle=0;childLayout=stackLayout;horizontal=1;startSize=30;horizontalStack=0;resizeParent=1;resizeParentMax=0;resizeLast=0;collapsible=1;marginBottom=0;whiteSpace=wrap;html=1;fontSize=14;fontFamily=Times New Roman;rounded=0;" parent="1" vertex="1">
                    <mxGeometry x="485.06000000000006" y="1107.9799999999998" width="157.48" height="60" as="geometry">
                        <mxRectangle x="-334.64000000000004" y="708.6600000000001" width="177.165" height="39.37" as="alternateBounds"/>
                    </mxGeometry>
                </mxCell>
                <mxCell id="112" value="&lt;i&gt;RP_message = &lt;/i&gt;{0}" style="text;strokeColor=none;fillColor=none;align=left;verticalAlign=middle;spacingLeft=4;spacingRight=4;overflow=hidden;points=[[0,0.5],[1,0.5]];portConstraint=eastwest;rotatable=0;whiteSpace=wrap;html=1;fontSize=14;fontFamily=Times New Roman;rounded=0;" parent="111" vertex="1">
                    <mxGeometry y="30" width="157.48" height="30" as="geometry"/>
                </mxCell>
                <mxCell id="115" value="&lt;i&gt;math.h&lt;/i&gt;" style="swimlane;fontStyle=0;childLayout=stackLayout;horizontal=1;startSize=30;horizontalStack=0;resizeParent=1;resizeParentMax=0;resizeLast=0;collapsible=1;marginBottom=0;whiteSpace=wrap;html=1;fontSize=14;fontFamily=Times New Roman;rounded=0;" parent="1" vertex="1">
                    <mxGeometry x="918.14" y="1324.5199999999998" width="137.79" height="78.74000000000001" as="geometry">
                        <mxRectangle x="472.43999999999994" y="944.8799999999999" width="98.425" height="39.37" as="alternateBounds"/>
                    </mxGeometry>
                </mxCell>
                <mxCell id="116" value="&lt;div style=&quot;text-align: justify;&quot;&gt;&lt;div style=&quot;text-align: left;&quot;&gt;&lt;font style=&quot;text-align: center;&quot;&gt;Заголовочный файл&lt;br&gt;&lt;/font&gt;&lt;font style=&quot;text-align: center;&quot;&gt;Унарные операции&lt;/font&gt;&lt;/div&gt;&lt;/div&gt;" style="text;strokeColor=none;fillColor=none;align=left;verticalAlign=middle;spacingLeft=4;spacingRight=4;overflow=hidden;points=[[0,0.5],[1,0.5]];portConstraint=eastwest;rotatable=0;whiteSpace=wrap;html=1;fontSize=14;fontFamily=Times New Roman;rounded=0;" parent="115" vertex="1">
                    <mxGeometry y="30" width="137.79" height="48.74" as="geometry"/>
                </mxCell>
                <mxCell id="163" style="edgeStyle=orthogonalEdgeStyle;html=1;entryX=0.5;entryY=0;entryDx=0;entryDy=0;exitX=0.5;exitY=1;exitDx=0;exitDy=0;dashed=1;endArrow=open;endFill=0;" edge="1" parent="1" source="117" target="161">
                    <mxGeometry relative="1" as="geometry">
                        <mxPoint x="1181" y="1417" as="sourcePoint"/>
                    </mxGeometry>
                </mxCell>
                <mxCell id="171" style="edgeStyle=orthogonalEdgeStyle;html=1;entryX=0.5;entryY=0;entryDx=0;entryDy=0;exitX=0.5;exitY=1;exitDx=0;exitDy=0;dashed=1;endArrow=open;endFill=0;" edge="1" parent="1" source="117" target="166">
                    <mxGeometry relative="1" as="geometry">
                        <mxPoint x="1161" y="1594" as="sourcePoint"/>
                        <Array as="points">
                            <mxPoint x="1282" y="1614"/>
                            <mxPoint x="1509" y="1614"/>
                        </Array>
                    </mxGeometry>
                </mxCell>
                <mxCell id="117" value="&lt;i&gt;System_status.h&lt;/i&gt;" style="swimlane;fontStyle=0;childLayout=stackLayout;horizontal=1;startSize=30;horizontalStack=0;resizeParent=1;resizeParentMax=0;resizeLast=0;collapsible=1;marginBottom=0;whiteSpace=wrap;html=1;fontSize=14;fontFamily=Times New Roman;rounded=0;" parent="1" vertex="1">
                    <mxGeometry x="1134.67" y="1324.52" width="295.28" height="236.22000000000003" as="geometry">
                        <mxRectangle x="1134.67" y="1324.52" width="98.425" height="39.37" as="alternateBounds"/>
                    </mxGeometry>
                </mxCell>
                <mxCell id="118" value="&lt;div style=&quot;text-align: justify;&quot;&gt;&lt;div style=&quot;text-align: left;&quot;&gt;&lt;font&gt;&lt;span style=&quot;background-color: transparent;&quot;&gt;Заголовочный файл&lt;/span&gt;&lt;/font&gt;&lt;/div&gt;&lt;div style=&quot;text-align: justify;&quot;&gt;&lt;font&gt;&lt;span style=&quot;background-color: transparent;&quot;&gt;Контроль рабочей зоны&lt;/span&gt;&lt;/font&gt;&lt;/div&gt;&lt;/div&gt;" style="text;strokeColor=none;fillColor=none;align=left;verticalAlign=middle;spacingLeft=4;spacingRight=4;overflow=hidden;points=[[0,0.5],[1,0.5]];portConstraint=eastwest;rotatable=0;whiteSpace=wrap;html=1;fontSize=14;fontFamily=Times New Roman;rounded=0;" parent="117" vertex="1">
                    <mxGeometry y="30" width="295.28" height="48.74" as="geometry"/>
                </mxCell>
                <mxCell id="119" value="&lt;div style=&quot;text-align: justify;&quot;&gt;&lt;span style=&quot;text-align: center; background-color: transparent;&quot;&gt;&lt;div style=&quot;text-align: left;&quot;&gt;&lt;span style=&quot;color: rgb(63, 63, 63); text-align: justify; background-color: transparent;&quot;&gt;// Прототипы методов&lt;br&gt;&lt;/span&gt;&lt;div style=&quot;color: rgb(63, 63, 63); text-align: justify;&quot;&gt;&lt;div&gt;&lt;span style=&quot;background-color: transparent;&quot;&gt;&lt;i&gt;void Systema_CheckLimit(&lt;/i&gt;&lt;/span&gt;&lt;i style=&quot;background-color: transparent;&quot;&gt;Systems *Systema_xx&lt;/i&gt;&lt;i style=&quot;background-color: transparent;&quot;&gt;)&lt;/i&gt;&lt;/div&gt;&lt;/div&gt;&lt;/div&gt;&lt;/span&gt;&lt;/div&gt;" style="text;strokeColor=none;fillColor=none;align=left;verticalAlign=middle;spacingLeft=4;spacingRight=4;overflow=hidden;points=[[0,0.5],[1,0.5]];portConstraint=eastwest;rotatable=0;whiteSpace=wrap;html=1;fontSize=14;fontFamily=Times New Roman;rounded=0;" parent="117" vertex="1">
                    <mxGeometry y="78.74000000000001" width="295.28" height="39.37" as="geometry"/>
                </mxCell>
                <mxCell id="120" value="// Структуры&lt;div&gt;&lt;i&gt;typedef struct&lt;/i&gt; {&lt;/div&gt;&lt;div&gt;&amp;nbsp; &lt;i&gt;float Actual_angular&lt;/i&gt;;&lt;/div&gt;&lt;div&gt;&amp;nbsp; &lt;i&gt;float Minimum&lt;/i&gt;;&lt;/div&gt;&lt;div&gt;&amp;nbsp; &lt;i&gt;float Maximum&lt;/i&gt;;&lt;/div&gt;&lt;div&gt;} &lt;i&gt;Systems&lt;/i&gt;;&lt;/div&gt;" style="text;strokeColor=none;fillColor=none;align=left;verticalAlign=middle;spacingLeft=4;spacingRight=4;overflow=hidden;points=[[0,0.5],[1,0.5]];portConstraint=eastwest;rotatable=0;whiteSpace=wrap;html=1;fontSize=14;fontFamily=Times New Roman;rounded=0;" parent="117" vertex="1">
                    <mxGeometry y="118.11000000000001" width="295.28" height="118.11" as="geometry"/>
                </mxCell>
                <mxCell id="121" value="&lt;font&gt;#&lt;i&gt;include&lt;/i&gt;&lt;/font&gt;" style="text;html=1;align=center;verticalAlign=middle;whiteSpace=wrap;rounded=0;fontSize=14;fontFamily=Times New Roman;" parent="1" vertex="1">
                    <mxGeometry x="1114.99" y="891.45" width="78.74" height="39.01" as="geometry"/>
                </mxCell>
                <mxCell id="129" style="edgeStyle=orthogonalEdgeStyle;html=1;entryX=1;entryY=0.5;entryDx=0;entryDy=0;exitX=0.25;exitY=1;exitDx=0;exitDy=0;dashed=1;endArrow=open;endFill=0;fontSize=14;fontFamily=Times New Roman;rounded=0;" edge="1" parent="1" source="126" target="64">
                    <mxGeometry relative="1" as="geometry"/>
                </mxCell>
                <mxCell id="138" style="edgeStyle=orthogonalEdgeStyle;html=1;entryX=0.5;entryY=0;entryDx=0;entryDy=0;exitX=0.5;exitY=1;exitDx=0;exitDy=0;dashed=1;endArrow=open;endFill=0;fontSize=14;fontFamily=Times New Roman;rounded=0;" edge="1" parent="1" source="126" target="130">
                    <mxGeometry relative="1" as="geometry"/>
                </mxCell>
                <mxCell id="139" style="edgeStyle=orthogonalEdgeStyle;html=1;entryX=0.5;entryY=0;entryDx=0;entryDy=0;exitX=0.5;exitY=1;exitDx=0;exitDy=0;dashed=1;endArrow=open;endFill=0;fontSize=14;fontFamily=Times New Roman;rounded=0;" edge="1" parent="1" source="126" target="134">
                    <mxGeometry relative="1" as="geometry"/>
                </mxCell>
                <mxCell id="126" value="&lt;i&gt;Encoder.c&lt;/i&gt;" style="swimlane;fontStyle=0;childLayout=stackLayout;horizontal=1;startSize=30;horizontalStack=0;resizeParent=1;resizeParentMax=0;resizeLast=0;collapsible=1;marginBottom=0;whiteSpace=wrap;html=1;fontSize=14;fontFamily=Times New Roman;rounded=0;" parent="1" vertex="1">
                    <mxGeometry x="2276.4" y="871.77" width="295.27" height="137.79000000000002" as="geometry">
                        <mxRectangle x="1496.06" y="511.81" width="98.425" height="39.37" as="alternateBounds"/>
                    </mxGeometry>
                </mxCell>
                <mxCell id="127" value="&lt;div style=&quot;text-align: justify;&quot;&gt;&lt;div style=&quot;text-align: left;&quot;&gt;&lt;font&gt;&lt;span style=&quot;background-color: transparent;&quot;&gt;Исполняемый файл&lt;/span&gt;&lt;/font&gt;&lt;/div&gt;&lt;font style=&quot;text-align: center; background-color: transparent;&quot;&gt;&lt;div style=&quot;text-align: justify;&quot;&gt;Определение углов системы&lt;/div&gt;&lt;/font&gt;&lt;/div&gt;" style="text;strokeColor=none;fillColor=none;align=left;verticalAlign=middle;spacingLeft=4;spacingRight=4;overflow=hidden;points=[[0,0.5],[1,0.5]];portConstraint=eastwest;rotatable=0;whiteSpace=wrap;html=1;fontSize=14;fontFamily=Times New Roman;rounded=0;" parent="126" vertex="1">
                    <mxGeometry y="30" width="295.27" height="48.74" as="geometry"/>
                </mxCell>
                <mxCell id="128" value="&lt;div style=&quot;text-align: justify;&quot;&gt;&lt;span style=&quot;text-align: center; background-color: transparent;&quot;&gt;&lt;div style=&quot;text-align: left;&quot;&gt;&lt;span style=&quot;color: rgb(63, 63, 63); text-align: justify; background-color: transparent;&quot;&gt;// Реализация методов&lt;br&gt;&lt;/span&gt;&lt;div style=&quot;color: rgb(63, 63, 63); text-align: justify;&quot;&gt;&lt;div&gt;&lt;span style=&quot;background-color: transparent;&quot;&gt;&lt;i&gt;void Encoder_Init(Encoder *Encoder_xx)&lt;/i&gt;&lt;/span&gt;&lt;/div&gt;&lt;div&gt;&lt;span style=&quot;background-color: transparent;&quot;&gt;&lt;i&gt;void&amp;nbsp;&lt;/i&gt;&lt;/span&gt;&lt;i style=&quot;color: rgb(63, 63, 63);&quot;&gt;Encoder_GetAngular&lt;/i&gt;&lt;span style=&quot;background-color: transparent;&quot;&gt;&lt;i&gt;(&lt;/i&gt;&lt;/span&gt;&lt;i style=&quot;color: rgb(63, 63, 63);&quot;&gt;Encoder *Encoder_xx&lt;/i&gt;&lt;span style=&quot;background-color: transparent;&quot;&gt;&lt;i&gt;)&lt;/i&gt;&lt;/span&gt;&lt;/div&gt;&lt;/div&gt;&lt;/div&gt;&lt;/span&gt;&lt;/div&gt;" style="text;strokeColor=none;fillColor=none;align=left;verticalAlign=middle;spacingLeft=4;spacingRight=4;overflow=hidden;points=[[0,0.5],[1,0.5]];portConstraint=eastwest;rotatable=0;whiteSpace=wrap;html=1;fontSize=14;fontFamily=Times New Roman;rounded=0;" parent="126" vertex="1">
                    <mxGeometry y="78.74000000000001" width="295.27" height="59.05" as="geometry"/>
                </mxCell>
                <mxCell id="130" value="&lt;i&gt;Encoder_AZ&lt;/i&gt;" style="swimlane;fontStyle=0;childLayout=stackLayout;horizontal=1;startSize=30;horizontalStack=0;resizeParent=1;resizeParentMax=0;resizeLast=0;collapsible=1;marginBottom=0;whiteSpace=wrap;html=1;fontSize=14;fontFamily=Times New Roman;rounded=0;" vertex="1" parent="1">
                    <mxGeometry x="2433.88" y="1088.76" width="196.85" height="98.42999999999999" as="geometry">
                        <mxRectangle x="1102.36" y="610.23" width="98.425" height="39.37" as="alternateBounds"/>
                    </mxGeometry>
                </mxCell>
                <mxCell id="131" value="&lt;div style=&quot;text-align: justify;&quot;&gt;&lt;div style=&quot;text-align: left;&quot;&gt;&lt;i style=&quot;color: rgb(63, 63, 63); background-color: transparent;&quot;&gt;TIM_HandleTypeDef =&amp;nbsp;&lt;/i&gt;&amp;amp;&lt;i&gt;htime&lt;/i&gt;8&lt;/div&gt;&lt;/div&gt;" style="text;strokeColor=none;fillColor=none;align=left;verticalAlign=middle;spacingLeft=4;spacingRight=4;overflow=hidden;points=[[0,0.5],[1,0.5]];portConstraint=eastwest;rotatable=0;whiteSpace=wrap;html=1;fontSize=14;fontFamily=Times New Roman;rounded=0;" vertex="1" parent="130">
                    <mxGeometry y="30" width="196.85" height="29.05" as="geometry"/>
                </mxCell>
                <mxCell id="132" value="&lt;div style=&quot;text-align: justify;&quot;&gt;&lt;span style=&quot;text-align: center; background-color: transparent;&quot;&gt;&lt;div style=&quot;text-align: left;&quot;&gt;&lt;i style=&quot;color: rgb(63, 63, 63);&quot;&gt;Pulses_per_revolution = 3000&lt;/i&gt;&lt;/div&gt;&lt;/span&gt;&lt;/div&gt;" style="text;strokeColor=none;fillColor=none;align=left;verticalAlign=middle;spacingLeft=4;spacingRight=4;overflow=hidden;points=[[0,0.5],[1,0.5]];portConstraint=eastwest;rotatable=0;whiteSpace=wrap;html=1;fontSize=14;fontFamily=Times New Roman;rounded=0;" vertex="1" parent="130">
                    <mxGeometry y="59.05" width="196.85" height="19.69" as="geometry"/>
                </mxCell>
                <mxCell id="133" value="&lt;i style=&quot;color: rgb(63, 63, 63);&quot;&gt;Safe_start_value = 30&lt;/i&gt;" style="text;strokeColor=none;fillColor=none;align=left;verticalAlign=middle;spacingLeft=4;spacingRight=4;overflow=hidden;points=[[0,0.5],[1,0.5]];portConstraint=eastwest;rotatable=0;whiteSpace=wrap;html=1;fontSize=14;fontFamily=Times New Roman;rounded=0;" vertex="1" parent="130">
                    <mxGeometry y="78.74" width="196.85" height="19.69" as="geometry"/>
                </mxCell>
                <mxCell id="134" value="&lt;i&gt;Encoder_EL&lt;/i&gt;" style="swimlane;fontStyle=0;childLayout=stackLayout;horizontal=1;startSize=30;horizontalStack=0;resizeParent=1;resizeParentMax=0;resizeLast=0;collapsible=1;marginBottom=0;whiteSpace=wrap;html=1;fontSize=14;fontFamily=Times New Roman;rounded=0;" vertex="1" parent="1">
                    <mxGeometry x="2709.4700000000003" y="1088.76" width="196.85" height="98.42999999999999" as="geometry">
                        <mxRectangle x="1102.36" y="610.23" width="98.425" height="39.37" as="alternateBounds"/>
                    </mxGeometry>
                </mxCell>
                <mxCell id="135" value="&lt;div style=&quot;text-align: justify;&quot;&gt;&lt;div style=&quot;text-align: left;&quot;&gt;&lt;i style=&quot;color: rgb(63, 63, 63); background-color: transparent;&quot;&gt;TIM_HandleTypeDef =&amp;nbsp;&lt;/i&gt;&amp;amp;&lt;i&gt;htime5&lt;/i&gt;&lt;/div&gt;&lt;/div&gt;" style="text;strokeColor=none;fillColor=none;align=left;verticalAlign=middle;spacingLeft=4;spacingRight=4;overflow=hidden;points=[[0,0.5],[1,0.5]];portConstraint=eastwest;rotatable=0;whiteSpace=wrap;html=1;fontSize=14;fontFamily=Times New Roman;rounded=0;" vertex="1" parent="134">
                    <mxGeometry y="30" width="196.85" height="29.05" as="geometry"/>
                </mxCell>
                <mxCell id="136" value="&lt;div style=&quot;text-align: justify;&quot;&gt;&lt;span style=&quot;text-align: center; background-color: transparent;&quot;&gt;&lt;div style=&quot;text-align: left;&quot;&gt;&lt;i style=&quot;color: rgb(63, 63, 63);&quot;&gt;Pulses_per_revolution = 611&lt;/i&gt;&lt;/div&gt;&lt;/span&gt;&lt;/div&gt;" style="text;strokeColor=none;fillColor=none;align=left;verticalAlign=middle;spacingLeft=4;spacingRight=4;overflow=hidden;points=[[0,0.5],[1,0.5]];portConstraint=eastwest;rotatable=0;whiteSpace=wrap;html=1;fontSize=14;fontFamily=Times New Roman;rounded=0;" vertex="1" parent="134">
                    <mxGeometry y="59.05" width="196.85" height="19.69" as="geometry"/>
                </mxCell>
                <mxCell id="137" value="&lt;i style=&quot;color: rgb(63, 63, 63);&quot;&gt;Safe_start_value = 30&lt;/i&gt;" style="text;strokeColor=none;fillColor=none;align=left;verticalAlign=middle;spacingLeft=4;spacingRight=4;overflow=hidden;points=[[0,0.5],[1,0.5]];portConstraint=eastwest;rotatable=0;whiteSpace=wrap;html=1;fontSize=14;fontFamily=Times New Roman;rounded=0;" vertex="1" parent="134">
                    <mxGeometry y="78.74" width="196.85" height="19.69" as="geometry"/>
                </mxCell>
                <mxCell id="141" value="&lt;font&gt;#&lt;i&gt;include&lt;/i&gt;&lt;/font&gt;" style="text;html=1;align=center;verticalAlign=middle;whiteSpace=wrap;rounded=0;fontSize=14;fontFamily=Times New Roman;" vertex="1" parent="1">
                    <mxGeometry x="1114.99" y="1245.78" width="78.74" height="39.01" as="geometry"/>
                </mxCell>
                <mxCell id="142" value="&lt;font&gt;#&lt;i&gt;include&lt;/i&gt;&lt;/font&gt;" style="text;html=1;align=center;verticalAlign=middle;whiteSpace=wrap;rounded=0;fontSize=14;fontFamily=Times New Roman;" vertex="1" parent="1">
                    <mxGeometry x="2276.4" y="1009.9199999999998" width="78.74" height="39.01" as="geometry"/>
                </mxCell>
                <mxCell id="143" value="&lt;font&gt;#&lt;i&gt;include&lt;/i&gt;&lt;/font&gt;" style="text;html=1;align=center;verticalAlign=middle;whiteSpace=wrap;rounded=0;fontSize=14;fontFamily=Times New Roman;" vertex="1" parent="1">
                    <mxGeometry x="2040.1799999999998" y="1226.09" width="78.74" height="39.01" as="geometry"/>
                </mxCell>
                <mxCell id="149" style="edgeStyle=orthogonalEdgeStyle;html=1;exitX=0.5;exitY=1;exitDx=0;exitDy=0;entryX=0;entryY=0.5;entryDx=0;entryDy=0;dashed=1;endArrow=open;endFill=0;fontSize=14;fontFamily=Times New Roman;rounded=0;" edge="1" parent="1" source="144" target="117">
                    <mxGeometry relative="1" as="geometry"/>
                </mxCell>
                <mxCell id="159" style="edgeStyle=orthogonalEdgeStyle;html=1;entryX=0.5;entryY=0;entryDx=0;entryDy=0;exitX=0.25;exitY=1;exitDx=0;exitDy=0;dashed=1;endArrow=open;endFill=0;" edge="1" parent="1" source="144" target="151">
                    <mxGeometry relative="1" as="geometry"/>
                </mxCell>
                <mxCell id="160" style="edgeStyle=orthogonalEdgeStyle;html=1;entryX=0.5;entryY=0;entryDx=0;entryDy=0;exitX=0.25;exitY=1;exitDx=0;exitDy=0;dashed=1;endArrow=open;endFill=0;" edge="1" parent="1" source="144" target="155">
                    <mxGeometry relative="1" as="geometry">
                        <mxPoint x="433.06999999999994" y="1377.95" as="targetPoint"/>
                    </mxGeometry>
                </mxCell>
                <mxCell id="144" value="&lt;i&gt;System_status.c&lt;/i&gt;" style="swimlane;fontStyle=0;childLayout=stackLayout;horizontal=1;startSize=20;horizontalStack=0;resizeParent=1;resizeParentMax=0;resizeLast=0;collapsible=1;marginBottom=0;whiteSpace=wrap;html=1;fontSize=14;fontFamily=Times New Roman;rounded=0;" vertex="1" parent="1">
                    <mxGeometry x="551.18" y="1259.84" width="295.27" height="98.41999999999999" as="geometry">
                        <mxRectangle x="551.18" y="1259.84" width="98.425" height="39.37" as="alternateBounds"/>
                    </mxGeometry>
                </mxCell>
                <mxCell id="145" value="&lt;div style=&quot;text-align: justify;&quot;&gt;&lt;div style=&quot;text-align: left;&quot;&gt;&lt;font&gt;&lt;span style=&quot;background-color: transparent;&quot;&gt;Исполняемый файл&lt;/span&gt;&lt;/font&gt;&lt;/div&gt;&lt;div style=&quot;text-align: justify;&quot;&gt;&lt;font&gt;&lt;span style=&quot;background-color: transparent;&quot;&gt;Контроль рабочей зоны&lt;/span&gt;&lt;/font&gt;&lt;/div&gt;&lt;/div&gt;" style="text;strokeColor=none;fillColor=none;align=left;verticalAlign=middle;spacingLeft=4;spacingRight=4;overflow=hidden;points=[[0,0.5],[1,0.5]];portConstraint=eastwest;rotatable=0;whiteSpace=wrap;html=1;fontSize=14;fontFamily=Times New Roman;rounded=0;" vertex="1" parent="144">
                    <mxGeometry y="20" width="295.27" height="39.05" as="geometry"/>
                </mxCell>
                <mxCell id="146" value="&lt;div style=&quot;text-align: justify;&quot;&gt;&lt;span style=&quot;text-align: center; background-color: transparent;&quot;&gt;&lt;div style=&quot;text-align: left;&quot;&gt;&lt;span style=&quot;color: rgb(63, 63, 63); text-align: justify; background-color: transparent;&quot;&gt;// Реализация методов&lt;br&gt;&lt;/span&gt;&lt;div style=&quot;color: rgb(63, 63, 63); text-align: justify;&quot;&gt;&lt;div&gt;&lt;span style=&quot;background-color: transparent;&quot;&gt;&lt;i&gt;void Systema_CheckLimit(&lt;/i&gt;&lt;/span&gt;&lt;i style=&quot;background-color: transparent;&quot;&gt;Systems *Systema_xx&lt;/i&gt;&lt;i style=&quot;background-color: transparent;&quot;&gt;)&lt;/i&gt;&lt;/div&gt;&lt;/div&gt;&lt;/div&gt;&lt;/span&gt;&lt;/div&gt;" style="text;strokeColor=none;fillColor=none;align=left;verticalAlign=middle;spacingLeft=4;spacingRight=4;overflow=hidden;points=[[0,0.5],[1,0.5]];portConstraint=eastwest;rotatable=0;whiteSpace=wrap;html=1;fontSize=14;fontFamily=Times New Roman;rounded=0;" vertex="1" parent="144">
                    <mxGeometry y="59.05" width="295.27" height="39.37" as="geometry"/>
                </mxCell>
                <mxCell id="150" value="&lt;font&gt;#&lt;i&gt;include&lt;/i&gt;&lt;/font&gt;" style="text;html=1;align=center;verticalAlign=middle;whiteSpace=wrap;rounded=0;fontSize=14;fontFamily=Times New Roman;" vertex="1" parent="1">
                    <mxGeometry x="721.28" y="1358.26" width="78.74" height="39.37" as="geometry"/>
                </mxCell>
                <mxCell id="151" value="&lt;i style=&quot;text-align: left; color: rgb(63, 63, 63);&quot;&gt;Systema_AZ&lt;/i&gt;&lt;font&gt;:&amp;nbsp;&lt;i style=&quot;color: rgb(63, 63, 63); text-align: left;&quot;&gt;Systems&lt;/i&gt;&lt;/font&gt;" style="swimlane;fontStyle=0;childLayout=stackLayout;horizontal=1;startSize=30;horizontalStack=0;resizeParent=1;resizeParentMax=0;resizeLast=0;collapsible=1;marginBottom=0;whiteSpace=wrap;html=1;fontSize=14;fontFamily=Times New Roman;rounded=0;" vertex="1" parent="1">
                    <mxGeometry x="452.75000000000006" y="1440.7399999999998" width="157.48" height="120" as="geometry">
                        <mxRectangle x="-334.64000000000004" y="708.6600000000001" width="177.165" height="39.37" as="alternateBounds"/>
                    </mxGeometry>
                </mxCell>
                <mxCell id="152" value="&lt;i&gt;Actual_angulat = 0&lt;/i&gt;" style="text;strokeColor=none;fillColor=none;align=left;verticalAlign=middle;spacingLeft=4;spacingRight=4;overflow=hidden;points=[[0,0.5],[1,0.5]];portConstraint=eastwest;rotatable=0;whiteSpace=wrap;html=1;fontSize=14;fontFamily=Times New Roman;rounded=0;" vertex="1" parent="151">
                    <mxGeometry y="30" width="157.48" height="30" as="geometry"/>
                </mxCell>
                <mxCell id="153" value="&lt;i&gt;Minimum&lt;/i&gt; = -270.0&lt;i&gt;f&lt;/i&gt;" style="text;strokeColor=none;fillColor=none;align=left;verticalAlign=middle;spacingLeft=4;spacingRight=4;overflow=hidden;points=[[0,0.5],[1,0.5]];portConstraint=eastwest;rotatable=0;whiteSpace=wrap;html=1;fontSize=14;fontFamily=Times New Roman;rounded=0;" vertex="1" parent="151">
                    <mxGeometry y="60" width="157.48" height="30" as="geometry"/>
                </mxCell>
                <mxCell id="154" value="&lt;i&gt;Maximum &lt;/i&gt;= 270.0&lt;i&gt;f&lt;/i&gt;" style="text;strokeColor=none;fillColor=none;align=left;verticalAlign=middle;spacingLeft=4;spacingRight=4;overflow=hidden;points=[[0,0.5],[1,0.5]];portConstraint=eastwest;rotatable=0;whiteSpace=wrap;html=1;fontSize=14;fontFamily=Times New Roman;rounded=0;" vertex="1" parent="151">
                    <mxGeometry y="90" width="157.48" height="30" as="geometry"/>
                </mxCell>
                <mxCell id="155" value="&lt;i style=&quot;text-align: left; color: rgb(63, 63, 63);&quot;&gt;Systema_EL&lt;/i&gt;&lt;font&gt;:&amp;nbsp;&lt;i style=&quot;color: rgb(63, 63, 63); text-align: left;&quot;&gt;Systems&lt;/i&gt;&lt;/font&gt;" style="swimlane;fontStyle=0;childLayout=stackLayout;horizontal=1;startSize=30;horizontalStack=0;resizeParent=1;resizeParentMax=0;resizeLast=0;collapsible=1;marginBottom=0;whiteSpace=wrap;html=1;fontSize=14;fontFamily=Times New Roman;rounded=0;" vertex="1" parent="1">
                    <mxGeometry x="216.54000000000002" y="1440.7399999999998" width="157.48" height="120" as="geometry">
                        <mxRectangle x="-334.64000000000004" y="708.6600000000001" width="177.165" height="39.37" as="alternateBounds"/>
                    </mxGeometry>
                </mxCell>
                <mxCell id="156" value="&lt;i&gt;Actual_angulat = 0&lt;/i&gt;" style="text;strokeColor=none;fillColor=none;align=left;verticalAlign=middle;spacingLeft=4;spacingRight=4;overflow=hidden;points=[[0,0.5],[1,0.5]];portConstraint=eastwest;rotatable=0;whiteSpace=wrap;html=1;fontSize=14;fontFamily=Times New Roman;rounded=0;" vertex="1" parent="155">
                    <mxGeometry y="30" width="157.48" height="30" as="geometry"/>
                </mxCell>
                <mxCell id="157" value="&lt;i&gt;Minimum&lt;/i&gt; = -20.0&lt;i&gt;f&lt;/i&gt;" style="text;strokeColor=none;fillColor=none;align=left;verticalAlign=middle;spacingLeft=4;spacingRight=4;overflow=hidden;points=[[0,0.5],[1,0.5]];portConstraint=eastwest;rotatable=0;whiteSpace=wrap;html=1;fontSize=14;fontFamily=Times New Roman;rounded=0;" vertex="1" parent="155">
                    <mxGeometry y="60" width="157.48" height="30" as="geometry"/>
                </mxCell>
                <mxCell id="158" value="&lt;i&gt;Maximum &lt;/i&gt;= 90.0&lt;i&gt;f&lt;/i&gt;" style="text;strokeColor=none;fillColor=none;align=left;verticalAlign=middle;spacingLeft=4;spacingRight=4;overflow=hidden;points=[[0,0.5],[1,0.5]];portConstraint=eastwest;rotatable=0;whiteSpace=wrap;html=1;fontSize=14;fontFamily=Times New Roman;rounded=0;" vertex="1" parent="155">
                    <mxGeometry y="90" width="157.48" height="30" as="geometry"/>
                </mxCell>
                <mxCell id="161" value="&lt;i&gt;Macros.h&lt;/i&gt;" style="swimlane;fontStyle=0;childLayout=stackLayout;horizontal=1;startSize=30;horizontalStack=0;resizeParent=1;resizeParentMax=0;resizeLast=0;collapsible=1;marginBottom=0;whiteSpace=wrap;html=1;fontSize=14;fontFamily=Times New Roman;rounded=0;" vertex="1" parent="1">
                    <mxGeometry x="1209.89" y="1650" width="144.84" height="137.79000000000002" as="geometry">
                        <mxRectangle x="472.43999999999994" y="944.8799999999999" width="98.425" height="39.37" as="alternateBounds"/>
                    </mxGeometry>
                </mxCell>
                <mxCell id="162" value="&lt;div style=&quot;text-align: justify;&quot;&gt;&lt;div style=&quot;text-align: left;&quot;&gt;&lt;font style=&quot;text-align: center;&quot;&gt;Заголовочный файл&lt;br&gt;&lt;/font&gt;&lt;font style=&quot;text-align: center;&quot;&gt;Операции сравнения&lt;/font&gt;&lt;/div&gt;&lt;/div&gt;" style="text;strokeColor=none;fillColor=none;align=left;verticalAlign=middle;spacingLeft=4;spacingRight=4;overflow=hidden;points=[[0,0.5],[1,0.5]];portConstraint=eastwest;rotatable=0;whiteSpace=wrap;html=1;fontSize=14;fontFamily=Times New Roman;rounded=0;" vertex="1" parent="161">
                    <mxGeometry y="30" width="144.84" height="48.74" as="geometry"/>
                </mxCell>
                <mxCell id="165" value="#define Min(a, b)&lt;div&gt;#define Max(a, b)&lt;/div&gt;&lt;div&gt;#define CLAMP(a, b)&lt;/div&gt;" style="text;strokeColor=none;fillColor=none;align=left;verticalAlign=middle;spacingLeft=4;spacingRight=4;overflow=hidden;points=[[0,0.5],[1,0.5]];portConstraint=eastwest;rotatable=0;whiteSpace=wrap;html=1;fontSize=14;fontFamily=Times New Roman;rounded=0;" vertex="1" parent="161">
                    <mxGeometry y="78.74000000000001" width="144.84" height="59.05" as="geometry"/>
                </mxCell>
                <mxCell id="164" value="&lt;font&gt;#&lt;i&gt;include&lt;/i&gt;&lt;/font&gt;" style="text;html=1;align=center;verticalAlign=middle;whiteSpace=wrap;rounded=0;fontSize=14;fontFamily=Times New Roman;" vertex="1" parent="1">
                    <mxGeometry x="1292.15" y="1560.74" width="78.74" height="39.01" as="geometry"/>
                </mxCell>
                <mxCell id="166" value="&lt;i&gt;Typedef_pins.h&lt;/i&gt;" style="swimlane;fontStyle=0;childLayout=stackLayout;horizontal=1;startSize=30;horizontalStack=0;resizeParent=1;resizeParentMax=0;resizeLast=0;collapsible=1;marginBottom=0;whiteSpace=wrap;html=1;fontSize=14;fontFamily=Times New Roman;rounded=0;" vertex="1" parent="1">
                    <mxGeometry x="1437.01" y="1692.91" width="144.84" height="275.59000000000003" as="geometry">
                        <mxRectangle x="1437.01" y="1692.91" width="98.425" height="39.37" as="alternateBounds"/>
                    </mxGeometry>
                </mxCell>
                <mxCell id="167" value="&lt;div style=&quot;text-align: justify;&quot;&gt;&lt;div style=&quot;text-align: left;&quot;&gt;&lt;font style=&quot;text-align: center;&quot;&gt;Заголовочный файл&lt;/font&gt;&lt;br&gt;&lt;/div&gt;&lt;div style=&quot;text-align: left;&quot;&gt;&lt;font style=&quot;text-align: center;&quot;&gt;Параметры пинов&lt;/font&gt;&lt;/div&gt;&lt;/div&gt;" style="text;strokeColor=none;fillColor=none;align=left;verticalAlign=middle;spacingLeft=4;spacingRight=4;overflow=hidden;points=[[0,0.5],[1,0.5]];portConstraint=eastwest;rotatable=0;whiteSpace=wrap;html=1;fontSize=14;fontFamily=Times New Roman;rounded=0;" vertex="1" parent="166">
                    <mxGeometry y="30" width="144.84" height="48.74" as="geometry"/>
                </mxCell>
                <mxCell id="168" value="// Структуры&lt;div&gt;&lt;i&gt;typedef struct &lt;/i&gt;{&lt;/div&gt;&lt;div&gt;&amp;nbsp; &lt;i&gt;GPIO_Typedef &lt;/i&gt;*&lt;i&gt;Port&lt;/i&gt;;&lt;/div&gt;&lt;div&gt;&amp;nbsp; &lt;i&gt;unsigned short Pin&lt;/i&gt;;&lt;/div&gt;&lt;div&gt;} &lt;i&gt;Bundle_Port_Pin;&lt;/i&gt;&lt;/div&gt;" style="text;strokeColor=none;fillColor=none;align=left;verticalAlign=middle;spacingLeft=4;spacingRight=4;overflow=hidden;points=[[0,0.5],[1,0.5]];portConstraint=eastwest;rotatable=0;whiteSpace=wrap;html=1;fontSize=14;fontFamily=Times New Roman;rounded=0;" vertex="1" parent="166">
                    <mxGeometry y="78.74000000000001" width="144.84" height="98.42" as="geometry"/>
                </mxCell>
                <mxCell id="170" value="// Перечисления&lt;div&gt;&lt;i&gt;typedef enum &lt;/i&gt;{&lt;/div&gt;&lt;div&gt;&amp;nbsp; &lt;i&gt;Low &lt;/i&gt;= 0,&lt;/div&gt;&lt;div&gt;&amp;nbsp; &lt;i&gt;Hight&lt;/i&gt;&lt;/div&gt;&lt;div&gt;} &lt;i&gt;Levl_signal&lt;/i&gt;;&lt;/div&gt;" style="text;strokeColor=none;fillColor=none;align=left;verticalAlign=middle;spacingLeft=4;spacingRight=4;overflow=hidden;points=[[0,0.5],[1,0.5]];portConstraint=eastwest;rotatable=0;whiteSpace=wrap;html=1;fontSize=14;fontFamily=Times New Roman;rounded=0;" vertex="1" parent="166">
                    <mxGeometry y="177.16000000000003" width="144.84" height="98.43" as="geometry"/>
                </mxCell>
                <mxCell id="179" style="edgeStyle=orthogonalEdgeStyle;html=1;entryX=0.5;entryY=0;entryDx=0;entryDy=0;exitX=0.5;exitY=1;exitDx=0;exitDy=0;dashed=1;endArrow=open;endFill=0;" edge="1" parent="1" source="172" target="166">
                    <mxGeometry relative="1" as="geometry"/>
                </mxCell>
                <mxCell id="172" value="&lt;i&gt;Stepper_Motor_Driver.h&lt;/i&gt;" style="swimlane;fontStyle=0;childLayout=stackLayout;horizontal=1;startSize=30;horizontalStack=0;resizeParent=1;resizeParentMax=0;resizeLast=0;collapsible=1;marginBottom=0;whiteSpace=wrap;html=1;fontSize=14;fontFamily=Times New Roman;rounded=0;" vertex="1" parent="1">
                    <mxGeometry x="1794.12" y="1324.52" width="492.12" height="295.27000000000004" as="geometry">
                        <mxRectangle x="1794.12" y="1324.52" width="98.425" height="39.37" as="alternateBounds"/>
                    </mxGeometry>
                </mxCell>
                <mxCell id="173" value="&lt;div style=&quot;text-align: justify;&quot;&gt;&lt;div style=&quot;text-align: left;&quot;&gt;&lt;font&gt;&lt;span style=&quot;background-color: transparent;&quot;&gt;Заголовочный файл&lt;/span&gt;&lt;/font&gt;&lt;/div&gt;&lt;font style=&quot;text-align: center; background-color: transparent;&quot;&gt;&lt;div style=&quot;text-align: justify;&quot;&gt;Определение поведение работы двигателя&lt;/div&gt;&lt;/font&gt;&lt;/div&gt;" style="text;strokeColor=none;fillColor=none;align=left;verticalAlign=middle;spacingLeft=4;spacingRight=4;overflow=hidden;points=[[0,0.5],[1,0.5]];portConstraint=eastwest;rotatable=0;whiteSpace=wrap;html=1;fontSize=14;fontFamily=Times New Roman;rounded=0;" vertex="1" parent="172">
                    <mxGeometry y="30" width="492.12" height="48.74" as="geometry"/>
                </mxCell>
                <mxCell id="174" value="&lt;div style=&quot;text-align: justify;&quot;&gt;&lt;span style=&quot;text-align: center; background-color: transparent;&quot;&gt;&lt;div style=&quot;text-align: left;&quot;&gt;&lt;span style=&quot;color: rgb(63, 63, 63); text-align: justify; background-color: transparent;&quot;&gt;// Прототипы методов&lt;br&gt;&lt;/span&gt;&lt;div style=&quot;color: rgb(63, 63, 63); text-align: justify;&quot;&gt;&lt;div&gt;&lt;span style=&quot;background-color: transparent;&quot;&gt;&lt;i&gt;void &lt;/i&gt;Pin_SetLevl(Bundle_Port_Pin *Pin, Levl_signal State);&lt;br&gt;&lt;/span&gt;&lt;/div&gt;&lt;div&gt;&lt;span style=&quot;background-color: transparent;&quot;&gt;void Motor_SetFrequency(Motor *Motor_xx, unsigned int frequency);&lt;/span&gt;&lt;/div&gt;&lt;div&gt;&lt;span style=&quot;color: rgb(63, 63, 63);&quot;&gt;void Motor_UpFrequency(Motor *Motor_xx);&lt;/span&gt;&lt;span style=&quot;background-color: transparent;&quot;&gt;&lt;/span&gt;&lt;/div&gt;&lt;div&gt;&lt;span style=&quot;color: rgb(63, 63, 63);&quot;&gt;&lt;span style=&quot;color: rgb(63, 63, 63);&quot;&gt;void Motor_DirRot(Motor *Motor_xx,&amp;nbsp;&lt;/span&gt;&lt;/span&gt;&lt;span style=&quot;color: rgb(63, 63, 63); background-color: transparent;&quot;&gt;Levl_signal Direction_of_rotation&lt;/span&gt;&lt;span style=&quot;color: rgb(63, 63, 63); background-color: transparent;&quot;&gt;);&lt;/span&gt;&lt;/div&gt;&lt;div&gt;&lt;span style=&quot;color: rgb(63, 63, 63);&quot;&gt;void Motor_Start(Motor *Motor_xx);&lt;/span&gt;&lt;span style=&quot;color: rgb(63, 63, 63); background-color: transparent;&quot;&gt;&lt;/span&gt;&lt;/div&gt;&lt;div&gt;&lt;span style=&quot;color: rgb(63, 63, 63);&quot;&gt;void Motor_Stop(Motor *Motor_xx);&lt;/span&gt;&lt;span style=&quot;color: rgb(63, 63, 63);&quot;&gt;&lt;/span&gt;&lt;/div&gt;&lt;/div&gt;&lt;/div&gt;&lt;/span&gt;&lt;/div&gt;" style="text;strokeColor=none;fillColor=none;align=left;verticalAlign=middle;spacingLeft=4;spacingRight=4;overflow=hidden;points=[[0,0.5],[1,0.5]];portConstraint=eastwest;rotatable=0;whiteSpace=wrap;html=1;fontSize=14;fontFamily=Times New Roman;rounded=0;" vertex="1" parent="172">
                    <mxGeometry y="78.74000000000001" width="492.12" height="118.11" as="geometry"/>
                </mxCell>
                <mxCell id="175" value="// Структуры&lt;div&gt;&lt;i&gt;typedef struct&lt;/i&gt; {&lt;/div&gt;&lt;div&gt;&amp;nbsp; &lt;i&gt;System_parameters Parameters&lt;/i&gt;;&lt;/div&gt;&lt;div&gt;&amp;nbsp; System_status Status;&lt;/div&gt;&lt;div&gt;} &lt;i&gt;Motor&lt;/i&gt;;&lt;/div&gt;" style="text;strokeColor=none;fillColor=none;align=left;verticalAlign=middle;spacingLeft=4;spacingRight=4;overflow=hidden;points=[[0,0.5],[1,0.5]];portConstraint=eastwest;rotatable=0;whiteSpace=wrap;html=1;fontSize=14;fontFamily=Times New Roman;rounded=0;" vertex="1" parent="172">
                    <mxGeometry y="196.85000000000002" width="492.12" height="98.42" as="geometry"/>
                </mxCell>
                <mxCell id="180" value="&lt;font&gt;#&lt;i&gt;include&lt;/i&gt;&lt;/font&gt;" style="text;html=1;align=center;verticalAlign=middle;whiteSpace=wrap;rounded=0;fontSize=14;fontFamily=Times New Roman;" vertex="1" parent="1">
                    <mxGeometry x="2040.1799999999998" y="1619.79" width="78.74" height="39.01" as="geometry"/>
                </mxCell>
                <mxCell id="185" style="edgeStyle=orthogonalEdgeStyle;html=1;entryX=1;entryY=0.5;entryDx=0;entryDy=0;exitX=0;exitY=0.5;exitDx=0;exitDy=0;dashed=1;endArrow=open;endFill=0;" edge="1" parent="1" source="181" target="172">
                    <mxGeometry relative="1" as="geometry">
                        <mxPoint x="2323" y="1319" as="sourcePoint"/>
                    </mxGeometry>
                </mxCell>
                <mxCell id="181" value="&lt;i&gt;Stepper_Motor_Driver.c&lt;/i&gt;" style="swimlane;fontStyle=0;childLayout=stackLayout;horizontal=1;startSize=30;horizontalStack=0;resizeParent=1;resizeParentMax=0;resizeLast=0;collapsible=1;marginBottom=0;whiteSpace=wrap;html=1;fontSize=14;fontFamily=Times New Roman;rounded=0;" vertex="1" parent="1">
                    <mxGeometry x="2381.89" y="1259.84" width="492.12" height="196.85000000000002" as="geometry">
                        <mxRectangle x="2381.89" y="1259.84" width="98.425" height="39.37" as="alternateBounds"/>
                    </mxGeometry>
                </mxCell>
                <mxCell id="182" value="&lt;div style=&quot;text-align: justify;&quot;&gt;&lt;div style=&quot;text-align: left;&quot;&gt;&lt;font&gt;&lt;span style=&quot;background-color: transparent;&quot;&gt;Испоолняемы файл&lt;/span&gt;&lt;/font&gt;&lt;/div&gt;&lt;font style=&quot;text-align: center; background-color: transparent;&quot;&gt;&lt;div style=&quot;text-align: justify;&quot;&gt;Определение поведение работы двигателя&lt;/div&gt;&lt;/font&gt;&lt;/div&gt;" style="text;strokeColor=none;fillColor=none;align=left;verticalAlign=middle;spacingLeft=4;spacingRight=4;overflow=hidden;points=[[0,0.5],[1,0.5]];portConstraint=eastwest;rotatable=0;whiteSpace=wrap;html=1;fontSize=14;fontFamily=Times New Roman;rounded=0;" vertex="1" parent="181">
                    <mxGeometry y="30" width="492.12" height="48.74" as="geometry"/>
                </mxCell>
                <mxCell id="183" value="&lt;div style=&quot;text-align: justify;&quot;&gt;&lt;span style=&quot;text-align: center; background-color: transparent;&quot;&gt;&lt;div style=&quot;text-align: left;&quot;&gt;&lt;span style=&quot;color: rgb(63, 63, 63); text-align: justify; background-color: transparent;&quot;&gt;// Реализация методов&lt;br&gt;&lt;/span&gt;&lt;div style=&quot;color: rgb(63, 63, 63); text-align: justify;&quot;&gt;&lt;div&gt;&lt;span style=&quot;background-color: transparent;&quot;&gt;&lt;i&gt;void &lt;/i&gt;Pin_SetLevl(Bundle_Port_Pin *Pin, Levl_signal State);&lt;br&gt;&lt;/span&gt;&lt;/div&gt;&lt;div&gt;&lt;span style=&quot;background-color: transparent;&quot;&gt;void Motor_SetFrequency(Motor *Motor_xx, unsigned int frequency);&lt;/span&gt;&lt;/div&gt;&lt;div&gt;&lt;span style=&quot;color: rgb(63, 63, 63);&quot;&gt;void Motor_UpFrequency(Motor *Motor_xx);&lt;/span&gt;&lt;span style=&quot;background-color: transparent;&quot;&gt;&lt;/span&gt;&lt;/div&gt;&lt;div&gt;&lt;span style=&quot;color: rgb(63, 63, 63);&quot;&gt;&lt;span style=&quot;color: rgb(63, 63, 63);&quot;&gt;void Motor_DirRot(Motor *Motor_xx,&amp;nbsp;&lt;/span&gt;&lt;/span&gt;&lt;span style=&quot;color: rgb(63, 63, 63); background-color: transparent;&quot;&gt;Levl_signal Direction_of_rotation&lt;/span&gt;&lt;span style=&quot;color: rgb(63, 63, 63); background-color: transparent;&quot;&gt;);&lt;/span&gt;&lt;/div&gt;&lt;div&gt;&lt;span style=&quot;color: rgb(63, 63, 63);&quot;&gt;void Motor_Start(Motor *Motor_xx);&lt;/span&gt;&lt;span style=&quot;color: rgb(63, 63, 63); background-color: transparent;&quot;&gt;&lt;/span&gt;&lt;/div&gt;&lt;div&gt;&lt;span style=&quot;color: rgb(63, 63, 63);&quot;&gt;void Motor_Stop(Motor *Motor_xx);&lt;/span&gt;&lt;span style=&quot;color: rgb(63, 63, 63);&quot;&gt;&lt;/span&gt;&lt;/div&gt;&lt;/div&gt;&lt;/div&gt;&lt;/span&gt;&lt;/div&gt;" style="text;strokeColor=none;fillColor=none;align=left;verticalAlign=middle;spacingLeft=4;spacingRight=4;overflow=hidden;points=[[0,0.5],[1,0.5]];portConstraint=eastwest;rotatable=0;whiteSpace=wrap;html=1;fontSize=14;fontFamily=Times New Roman;rounded=0;" vertex="1" parent="181">
                    <mxGeometry y="78.74000000000001" width="492.12" height="118.11" as="geometry"/>
                </mxCell>
                <mxCell id="192" style="edgeStyle=orthogonalEdgeStyle;html=1;entryX=1;entryY=0.5;entryDx=0;entryDy=0;endArrow=diamond;endFill=1;" edge="1" parent="1" source="186" target="175">
                    <mxGeometry relative="1" as="geometry"/>
                </mxCell>
                <mxCell id="186" value="&lt;i&gt;System_status&lt;/i&gt;" style="swimlane;fontStyle=0;childLayout=stackLayout;horizontal=1;startSize=30;horizontalStack=0;resizeParent=1;resizeParentMax=0;resizeLast=0;collapsible=1;marginBottom=0;whiteSpace=wrap;html=1;fontSize=14;fontFamily=Times New Roman;rounded=0;" vertex="1" parent="1">
                    <mxGeometry x="2381.89" y="1560.7399999999998" width="216.53" height="118.11999999999999" as="geometry">
                        <mxRectangle x="1102.36" y="610.23" width="98.425" height="39.37" as="alternateBounds"/>
                    </mxGeometry>
                </mxCell>
                <mxCell id="187" value="&lt;div style=&quot;text-align: justify;&quot;&gt;&lt;div style=&quot;text-align: left;&quot;&gt;&lt;i&gt;unsigned int Frequency&lt;/i&gt;&lt;/div&gt;&lt;/div&gt;" style="text;strokeColor=none;fillColor=none;align=left;verticalAlign=middle;spacingLeft=4;spacingRight=4;overflow=hidden;points=[[0,0.5],[1,0.5]];portConstraint=eastwest;rotatable=0;whiteSpace=wrap;html=1;fontSize=14;fontFamily=Times New Roman;rounded=0;" vertex="1" parent="186">
                    <mxGeometry y="30" width="216.53" height="29.05" as="geometry"/>
                </mxCell>
                <mxCell id="188" value="&lt;div style=&quot;text-align: justify;&quot;&gt;&lt;span style=&quot;text-align: center; background-color: transparent;&quot;&gt;&lt;div style=&quot;text-align: left;&quot;&gt;&lt;i style=&quot;color: rgb(63, 63, 63);&quot;&gt;unsigned char Functioning&lt;/i&gt;&lt;/div&gt;&lt;/span&gt;&lt;/div&gt;" style="text;strokeColor=none;fillColor=none;align=left;verticalAlign=middle;spacingLeft=4;spacingRight=4;overflow=hidden;points=[[0,0.5],[1,0.5]];portConstraint=eastwest;rotatable=0;whiteSpace=wrap;html=1;fontSize=14;fontFamily=Times New Roman;rounded=0;" vertex="1" parent="186">
                    <mxGeometry y="59.05" width="216.53" height="19.69" as="geometry"/>
                </mxCell>
                <mxCell id="189" value="&lt;i style=&quot;color: rgb(63, 63, 63);&quot;&gt;unsigned char Direction_of_rotation&lt;/i&gt;" style="text;strokeColor=none;fillColor=none;align=left;verticalAlign=middle;spacingLeft=4;spacingRight=4;overflow=hidden;points=[[0,0.5],[1,0.5]];portConstraint=eastwest;rotatable=0;whiteSpace=wrap;html=1;fontSize=14;fontFamily=Times New Roman;rounded=0;" vertex="1" parent="186">
                    <mxGeometry y="78.74" width="216.53" height="19.69" as="geometry"/>
                </mxCell>
                <mxCell id="191" value="&lt;i&gt;unsigned int Tik&lt;/i&gt;[2]" style="text;strokeColor=none;fillColor=none;align=left;verticalAlign=middle;spacingLeft=4;spacingRight=4;overflow=hidden;points=[[0,0.5],[1,0.5]];portConstraint=eastwest;rotatable=0;whiteSpace=wrap;html=1;fontSize=14;fontFamily=Times New Roman;rounded=0;" vertex="1" parent="186">
                    <mxGeometry y="98.42999999999999" width="216.53" height="19.69" as="geometry"/>
                </mxCell>
                <mxCell id="193" value="&lt;i&gt;System_status&lt;/i&gt;" style="swimlane;fontStyle=0;childLayout=stackLayout;horizontal=1;startSize=30;horizontalStack=0;resizeParent=1;resizeParentMax=0;resizeLast=0;collapsible=1;marginBottom=0;whiteSpace=wrap;html=1;fontSize=14;fontFamily=Times New Roman;rounded=0;" vertex="1" parent="1">
                    <mxGeometry x="2381.89" y="1771.65" width="216.53" height="98.42999999999999" as="geometry">
                        <mxRectangle x="2381.89" y="1771.6499999999999" width="98.425" height="39.37" as="alternateBounds"/>
                    </mxGeometry>
                </mxCell>
                <mxCell id="194" value="&lt;div style=&quot;text-align: justify;&quot;&gt;&lt;div style=&quot;text-align: left;&quot;&gt;&lt;i&gt;Pins Pins&lt;/i&gt;&lt;/div&gt;&lt;/div&gt;" style="text;strokeColor=none;fillColor=none;align=left;verticalAlign=middle;spacingLeft=4;spacingRight=4;overflow=hidden;points=[[0,0.5],[1,0.5]];portConstraint=eastwest;rotatable=0;whiteSpace=wrap;html=1;fontSize=14;fontFamily=Times New Roman;rounded=0;" vertex="1" parent="193">
                    <mxGeometry y="30" width="216.53" height="29.05" as="geometry"/>
                </mxCell>
                <mxCell id="195" value="&lt;div style=&quot;text-align: justify;&quot;&gt;&lt;span style=&quot;text-align: center; background-color: transparent;&quot;&gt;&lt;div style=&quot;text-align: left;&quot;&gt;&lt;i style=&quot;color: rgb(63, 63, 63);&quot;&gt;Timer Timer&lt;/i&gt;&lt;/div&gt;&lt;/span&gt;&lt;/div&gt;" style="text;strokeColor=none;fillColor=none;align=left;verticalAlign=middle;spacingLeft=4;spacingRight=4;overflow=hidden;points=[[0,0.5],[1,0.5]];portConstraint=eastwest;rotatable=0;whiteSpace=wrap;html=1;fontSize=14;fontFamily=Times New Roman;rounded=0;" vertex="1" parent="193">
                    <mxGeometry y="59.05" width="216.53" height="19.69" as="geometry"/>
                </mxCell>
                <mxCell id="196" value="&lt;i style=&quot;color: rgb(63, 63, 63);&quot;&gt;Frequency_paremeters Frequency&lt;/i&gt;" style="text;strokeColor=none;fillColor=none;align=left;verticalAlign=middle;spacingLeft=4;spacingRight=4;overflow=hidden;points=[[0,0.5],[1,0.5]];portConstraint=eastwest;rotatable=0;whiteSpace=wrap;html=1;fontSize=14;fontFamily=Times New Roman;rounded=0;" vertex="1" parent="193">
                    <mxGeometry y="78.74" width="216.53" height="19.69" as="geometry"/>
                </mxCell>
                <mxCell id="198" style="edgeStyle=orthogonalEdgeStyle;html=1;entryX=1;entryY=0.5;entryDx=0;entryDy=0;exitX=0;exitY=0.5;exitDx=0;exitDy=0;endArrow=diamond;endFill=1;" edge="1" parent="1" source="193" target="175">
                    <mxGeometry relative="1" as="geometry">
                        <mxPoint x="2343" y="1791" as="sourcePoint"/>
                    </mxGeometry>
                </mxCell>
                <mxCell id="206" style="edgeStyle=orthogonalEdgeStyle;html=1;entryX=1;entryY=0.5;entryDx=0;entryDy=0;endArrow=diamond;endFill=1;" edge="1" parent="1" source="202" target="194">
                    <mxGeometry relative="1" as="geometry"/>
                </mxCell>
                <mxCell id="202" value="&lt;i&gt;Pins&lt;/i&gt;" style="swimlane;fontStyle=0;childLayout=stackLayout;horizontal=1;startSize=30;horizontalStack=0;resizeParent=1;resizeParentMax=0;resizeLast=0;collapsible=1;marginBottom=0;whiteSpace=wrap;html=1;fontSize=14;fontFamily=Times New Roman;rounded=0;" vertex="1" parent="1">
                    <mxGeometry x="2736.22" y="1776.8000000000002" width="216.53" height="78.74" as="geometry">
                        <mxRectangle x="2381.89" y="1771.6499999999999" width="98.425" height="39.37" as="alternateBounds"/>
                    </mxGeometry>
                </mxCell>
                <mxCell id="203" value="&lt;div style=&quot;text-align: justify;&quot;&gt;&lt;div style=&quot;text-align: left;&quot;&gt;&lt;i&gt;Bundle_port_Pin ENA&lt;/i&gt;&lt;/div&gt;&lt;/div&gt;" style="text;strokeColor=none;fillColor=none;align=left;verticalAlign=middle;spacingLeft=4;spacingRight=4;overflow=hidden;points=[[0,0.5],[1,0.5]];portConstraint=eastwest;rotatable=0;whiteSpace=wrap;html=1;fontSize=14;fontFamily=Times New Roman;rounded=0;" vertex="1" parent="202">
                    <mxGeometry y="30" width="216.53" height="29.05" as="geometry"/>
                </mxCell>
                <mxCell id="205" value="&lt;i style=&quot;color: rgb(63, 63, 63);&quot;&gt;Bundle_port_Pin DIR&lt;/i&gt;" style="text;strokeColor=none;fillColor=none;align=left;verticalAlign=middle;spacingLeft=4;spacingRight=4;overflow=hidden;points=[[0,0.5],[1,0.5]];portConstraint=eastwest;rotatable=0;whiteSpace=wrap;html=1;fontSize=14;fontFamily=Times New Roman;rounded=0;" vertex="1" parent="202">
                    <mxGeometry y="59.05" width="216.53" height="19.69" as="geometry"/>
                </mxCell>
                <mxCell id="210" style="edgeStyle=orthogonalEdgeStyle;html=1;entryX=1;entryY=0.5;entryDx=0;entryDy=0;exitX=0;exitY=0.5;exitDx=0;exitDy=0;endArrow=diamond;endFill=1;" edge="1" parent="1" source="207" target="195">
                    <mxGeometry relative="1" as="geometry">
                        <Array as="points">
                            <mxPoint x="2677" y="1969"/>
                            <mxPoint x="2677" y="1841"/>
                        </Array>
                    </mxGeometry>
                </mxCell>
                <mxCell id="207" value="&lt;i&gt;Timer&lt;/i&gt;" style="swimlane;fontStyle=0;childLayout=stackLayout;horizontal=1;startSize=30;horizontalStack=0;resizeParent=1;resizeParentMax=0;resizeLast=0;collapsible=1;marginBottom=0;whiteSpace=wrap;html=1;fontSize=14;fontFamily=Times New Roman;rounded=0;" vertex="1" parent="1">
                    <mxGeometry x="2716.5299999999997" y="1929.13" width="236.22" height="78.74" as="geometry">
                        <mxRectangle x="2677.16" y="1929.13" width="98.425" height="39.37" as="alternateBounds"/>
                    </mxGeometry>
                </mxCell>
                <mxCell id="208" value="&lt;div style=&quot;text-align: justify;&quot;&gt;&lt;div style=&quot;text-align: left;&quot;&gt;&lt;i&gt;TIM_HandleTypeDef *Number_timer&lt;/i&gt;&lt;/div&gt;&lt;/div&gt;" style="text;strokeColor=none;fillColor=none;align=left;verticalAlign=middle;spacingLeft=4;spacingRight=4;overflow=hidden;points=[[0,0.5],[1,0.5]];portConstraint=eastwest;rotatable=0;whiteSpace=wrap;html=1;fontSize=14;fontFamily=Times New Roman;rounded=0;" vertex="1" parent="207">
                    <mxGeometry y="30" width="236.22" height="29.05" as="geometry"/>
                </mxCell>
                <mxCell id="209" value="&lt;i style=&quot;color: rgb(63, 63, 63);&quot;&gt;unsigned int Channel&lt;/i&gt;" style="text;strokeColor=none;fillColor=none;align=left;verticalAlign=middle;spacingLeft=4;spacingRight=4;overflow=hidden;points=[[0,0.5],[1,0.5]];portConstraint=eastwest;rotatable=0;whiteSpace=wrap;html=1;fontSize=14;fontFamily=Times New Roman;rounded=0;" vertex="1" parent="207">
                    <mxGeometry y="59.05" width="236.22" height="19.69" as="geometry"/>
                </mxCell>
                <mxCell id="215" style="edgeStyle=orthogonalEdgeStyle;html=1;entryX=1;entryY=0.5;entryDx=0;entryDy=0;endArrow=diamond;endFill=1;exitX=0;exitY=0.5;exitDx=0;exitDy=0;" edge="1" parent="1" source="211" target="196">
                    <mxGeometry relative="1" as="geometry">
                        <Array as="points">
                            <mxPoint x="2638" y="2136"/>
                            <mxPoint x="2638" y="1860"/>
                        </Array>
                    </mxGeometry>
                </mxCell>
                <mxCell id="211" value="&lt;i style=&quot;text-align: left; color: rgb(63, 63, 63);&quot;&gt;Frequency_paremeters&lt;/i&gt;" style="swimlane;fontStyle=0;childLayout=stackLayout;horizontal=1;startSize=30;horizontalStack=0;resizeParent=1;resizeParentMax=0;resizeLast=0;collapsible=1;marginBottom=0;whiteSpace=wrap;html=1;fontSize=14;fontFamily=Times New Roman;rounded=0;" vertex="1" parent="1">
                    <mxGeometry x="2677.16" y="2086.61" width="216.53" height="98.42999999999999" as="geometry">
                        <mxRectangle x="2689.79" y="2086.61" width="98.425" height="39.37" as="alternateBounds"/>
                    </mxGeometry>
                </mxCell>
                <mxCell id="212" value="&lt;div style=&quot;text-align: justify;&quot;&gt;&lt;div style=&quot;text-align: left;&quot;&gt;&lt;i style=&quot;color: rgb(63, 63, 63);&quot;&gt;unsigned int Maximum&lt;/i&gt;&lt;/div&gt;&lt;/div&gt;" style="text;strokeColor=none;fillColor=none;align=left;verticalAlign=middle;spacingLeft=4;spacingRight=4;overflow=hidden;points=[[0,0.5],[1,0.5]];portConstraint=eastwest;rotatable=0;whiteSpace=wrap;html=1;fontSize=14;fontFamily=Times New Roman;rounded=0;" vertex="1" parent="211">
                    <mxGeometry y="30" width="216.53" height="29.05" as="geometry"/>
                </mxCell>
                <mxCell id="213" value="&lt;div style=&quot;text-align: justify;&quot;&gt;&lt;span style=&quot;text-align: center; background-color: transparent;&quot;&gt;&lt;div style=&quot;text-align: left;&quot;&gt;&lt;i style=&quot;color: rgb(63, 63, 63);&quot;&gt;unsigned int Minimum&lt;/i&gt;&lt;/div&gt;&lt;/span&gt;&lt;/div&gt;" style="text;strokeColor=none;fillColor=none;align=left;verticalAlign=middle;spacingLeft=4;spacingRight=4;overflow=hidden;points=[[0,0.5],[1,0.5]];portConstraint=eastwest;rotatable=0;whiteSpace=wrap;html=1;fontSize=14;fontFamily=Times New Roman;rounded=0;" vertex="1" parent="211">
                    <mxGeometry y="59.05" width="216.53" height="19.69" as="geometry"/>
                </mxCell>
                <mxCell id="214" value="&lt;i style=&quot;color: rgb(63, 63, 63);&quot;&gt;unsigned int StepUp&lt;/i&gt;" style="text;strokeColor=none;fillColor=none;align=left;verticalAlign=middle;spacingLeft=4;spacingRight=4;overflow=hidden;points=[[0,0.5],[1,0.5]];portConstraint=eastwest;rotatable=0;whiteSpace=wrap;html=1;fontSize=14;fontFamily=Times New Roman;rounded=0;" vertex="1" parent="211">
                    <mxGeometry y="78.74" width="216.53" height="19.69" as="geometry"/>
                </mxCell>
            </root>
        </mxGraphModel>
    </diagram>
</mxfile>